<svg height="70.27658" viewBox="0 0 68.08451 70.27658" width="68.08451" xmlns="http://www.w3.org/2000/svg"><path d="m67.8778 52.86533c-.4-3-.9-5.9-1.3-8.9a114.57808 114.57808 0 0 0 -1.9-11.7c-1.2-8.3-.3-23-7.2-28.9-3.8-3.2-9.1-2.7-13.9-2.8-6.3-.1-12.7-.3-19.2-.4-8.4-.1-19.6-1.8-22.6 8.4-3.2 11.1-1.3 25.5-.3 36.7.9 9.9 0 22.7 12.1 24 15.2 1.8 31 .9 46-.4a4.39734 4.39734 0 0 0 4.1-2.7c3.90002-2.09999 4.90002-8.09999 4.2-13.3z" fill="#74a2d6"/><path d="m49.07782 47.56534c-3.1.6-6.3 1.3-9.4 1.9 4.7-9.6 6.9-20.9 1.5-30.5-5-8.9-19-10.3-22 .9-1.5 5.5 7.1 7.8 8.6 2.4 1.6-5.9 6.8 3.4 7.2 4.7a22.36406 22.36406 0 0 1 -.3 10.9c-1.3 5.8-4.3 10.8-7.7 15.6-2.4 3.4 1.5 7.2 5 6.5 6.5-1.3 13-2.7 19.5-4 5.6-1 3.2-9.60001-2.4-8.4z" fill="#fff"/></svg>