<svg id="visual" viewBox="0 0 1440 600" width="1440" height="600" xmlns="http://www.w3.org/2000/svg" xmlns:xlink="http://www.w3.org/1999/xlink" version="1.1"><rect width="1440" height="600" fill="#C8AD97"></rect><g><g transform="translate(84 496)"><path d="M61.6 -17.6C69.9 5.7 60 37.3 39.8 51.1C19.5 65 -11 61 -30.9 45.8C-50.9 30.5 -60.3 3.9 -53.4 -17.4C-46.4 -38.7 -23.2 -54.8 1.7 -55.3C26.6 -55.9 53.3 -40.9 61.6 -17.6Z" stroke="#fff" fill="none" stroke-width="20"></path></g><g transform="translate(1107 579)"><path d="M43.7 -12.8C49.4 3.3 41.7 25.1 26.3 36.3C10.9 47.5 -12.3 48.2 -26.3 37.7C-40.3 27.1 -45 5.5 -39.1 -10.9C-33.2 -27.3 -16.6 -38.5 1.2 -38.9C19 -39.3 38 -28.9 43.7 -12.8Z" stroke="#fff" fill="none" stroke-width="20"></path></g><g transform="translate(147 171)"><path d="M36 -12.5C40.9 3.7 35.4 22.4 22.2 32.5C9 42.6 -12 44 -24.7 34.6C-37.4 25.3 -41.7 5.1 -36.2 -11.8C-30.7 -28.7 -15.4 -42.4 0.1 -42.4C15.5 -42.4 31 -28.8 36 -12.5Z" stroke="#fff" fill="none" stroke-width="20"></path></g></g></svg>