<svg xmlns="http://www.w3.org/2000/svg" viewBox="0 0 1200 800" width="1200" height="800"><g transform="translate(600.0 465.0) rotate(0.0 108.0 107.0) scale(1.0041747636005245 1.0039783816243808)"><svg width="215.102" height="213.152" viewBox="0 0 215.102 213.152"><path d="m110.438 82.004-2.477.11-2.48.111-2.48.111-2.48.111-2.485.11-2.485.111-.948-8.134-2.716-7.701-5.397-6.074-7.396-3.449-8.002-1.744-8.118-1.127-13.51-2.138-12.986-4.22-11.17-7.784-7.725-11.212-4.162-13-1.583-13.583 2.477-.111 2.48-.11 2.48-.111 2.481-.111 2.484-.111 2.485-.111 1.063 10.157 2.83 9.792 5.694 8.401 8.608 5.372 9.849 2.633 10.108 1.467L76.425 41.4l11.225 3.165 10.022 5.897 7.301 9.031 3.996 10.934z" fill="#c3acf1"/><path d="m95.618 84.167-1.557-1.325-.929-7.968-2.562-7.265-4.996-5.622-6.963-3.247-7.783-1.696-8.061-1.119L49 53.728l-12.986-4.22-.394-.196-11.169-7.784-.377-.379-7.726-11.212-.193-.394-4.223-13.283-1.583-13.584 1.423-1.672L26.658.339l1.559 1.342 1.049 10.024 2.727 9.436 5.382 7.941 8.149 5.085 9.547 2.553 10.021 1.454 11.74 1.781 11.579 3.316 10.022 5.897.406.35 7.301 9.031.242.428 4.075 11.26 1.469 11.577-1.421 1.688zM49.815 50.838l13.394 2.119 8.203 1.143 8.317 1.851 7.396 3.449.487.363 5.398 6.074.293.498 2.791 8.026.787 6.748 11.865-.53-1.243-9.794-3.853-10.542-6.973-8.625-9.62-5.661-10.948-3.087-11.455-1.727-10.272-1.501-9.849-2.634-.406-.177-8.609-5.372-.448-.431-5.693-8.4-.199-.425-2.882-10.053-.916-8.751-11.865.53 1.379 11.838 4.049 12.649 7.446 10.805 10.764 7.501z" fill="#231f20"/><path d="m113.41 86.223-1.55-1.006-1.551-1.007-1.549-1.005-1.553-1.008-1.555-1.009-1.555-1.009-.861-13.287 1.04-13.281 2.631-13.061 4.258-12.622 6.242-11.758 9.005-9.737 3.889-2.407 4.249-1.687 4.493-.84 4.57.062 4.476.927 4.254 1.682 4.223 2.631 3.547 3.486 2.659 4.201 1.677 4.682.731 4.922-.102 4.979-3.367 13.038-6.285 11.939-8.27 10.669-9.885 9.192-11.316 7.353zm27.847-69.909-1.081.039-1.065.182-1.034.317-.99.435-.942.532-.895.61-5.987 6.732-4.19 8.015-3.052 8.52-2.16 8.793-1.328 8.958-.433 9.044 7.626-4.68 6.882-5.723 6.098-6.553 5.215-7.275 4.074-7.966 2.246-8.636.09-1.977-.149-1.973-.475-1.921-.892-1.761-1.345-1.447-1.681-1.024-.719-.33-.735-.29-.75-.243-.766-.19-.777-.128z" fill="#c3acf1"/><path d="m113.961 87.618-1.368-.137-9.314-6.043-.681-1.161-.861-13.287.001-.214 1.065-13.46 2.68-13.244 4.355-12.846 6.465-12.074 9.005-9.737.312-.257 4.125-2.525 4.527-1.768L139.061 0l4.853.093 4.724 1 4.495 1.804 4.481 2.834 3.763 3.753 2.804 4.498 1.749 4.968.747 5.173-.149 5.324-3.492 13.361-6.427 12.16-8.434 10.848-10.09 9.352-11.582 7.49zm-8.417-8.287 8.034 5.213 11.683-4.621 11.081-7.2 9.701-9.021 8.114-10.468 6.142-11.668 3.28-12.699.095-4.678-.69-4.651-1.571-4.387-2.478-3.915-3.305-3.249-3.967-2.472-4.007-1.584-4.209-.871-4.277-.058-4.203.786-3.991 1.584-3.603 2.229-8.734 9.444-6.093 11.478-4.189 12.417-2.594 12.879-1.024 13.083zm13.34-9.561-2.283-1.35.448-9.192 1.355-9.096 2.204-8.941 3.135-8.709 4.399-8.317 6.263-6.974 1.002-.677 1.077-.6 1.153-.495 1.221-.362 1.263-.203 1.081-.04 1.083.079.895.151.868.219.75.243 1.772.766 1.681 1.024.318.26 1.345 1.447.24.343 1.01 2.079.514 2.167.152 2.155-.137 2.286-2.362 8.942-4.191 8.157-5.336 7.423-6.237 6.684-7.056 5.848zm1.144-10.176-.294 6.135 5.115-3.14 6.725-5.593 5.968-6.413 5.094-7.106 3.948-7.72 2.165-8.325.079-1.729-.133-1.758-.404-1.634-.719-1.42-1.06-1.14-1.429-.871-1.3-.552-1.268-.357-.653-.107-.636-.048-.897.033-.872.149-.858.264-.842.369-.821.464-.69.471-5.741 6.455-4.057 7.76-2.991 8.35-2.125 8.649z" fill="#231f20"/><path d="m124.315 92.116-.567-4.34-1.676-4.043-2.667-3.471-3.471-2.666-4.043-1.676-4.34-.568-4.34.568-4.043 1.676-3.471 2.667-2.667 3.47-1.676 4.043-.567 4.34.567 4.341 1.677 4.043 2.666 3.471 3.471 2.666 4.043 1.676 4.34.567 4.341-.567 4.043-1.676 3.47-2.667 2.667-3.47 1.676-4.043z" fill="#c3acf1"/><path d="M107.746 110.368h-.389l-4.34-.567-.38-.102-4.043-1.676-.339-.196-3.471-2.667-.276-.275-2.667-3.471-.196-.339-1.676-4.043-.102-.38-.567-4.34v-.389l.567-4.34.102-.38 1.676-4.043.196-.34 2.666-3.471.276-.275 3.471-2.667.339-.196 4.043-1.676.38-.102 4.34-.567h.389l4.34.567.38.102 4.043 1.676.34.196 3.471 2.667.276.275 2.667 3.471.196.34 1.676 4.043.102.38.567 4.34v.389l-.567 4.34-.102.38-1.676 4.042-.196.34-2.667 3.471-.276.275-3.471 2.667-.339.196-4.043 1.676-.38.102zm-4.144-3.516 3.949.516 3.949-.516 3.677-1.525 3.158-2.427 2.426-3.158 1.524-3.677.516-3.949-.516-3.949-1.525-3.677-2.427-3.158-3.158-2.426-3.677-1.524-3.949-.516-3.949.516-3.677 1.525-3.158 2.426-2.426 3.158-1.524 3.677-.515 3.948.516 3.949 1.525 3.677 2.426 3.158 3.158 2.426z" fill="#231f20"/><path d="M204.127 211.652H10.975v-97.669h193.152v81.387z" fill="#ee4878"/><path d="M204.127 213.152H10.975l-1.5-1.5v-97.669l1.5-1.5h193.151l1.5 1.5v97.669zm-191.652-3h190.151v-94.669H12.475z" fill="#231f20"/><path d="M115.204 211.206H99.898v-79.69h15.306v66.402z" fill="#c3acf1"/><g fill="#231f20"><path d="M115.204 212.706H99.898l-1.5-1.5v-79.69l1.5-1.5h15.306l1.5 1.5v79.69zm-13.806-3h12.306v-76.69h-12.306z"/><path d="m10.975 113.983.041 2.91.04 2.914.041 2.914.04 2.915.041 2.92.04 2.92 32.149 1.909 32.15 1.91 32.151 1.91 32.15 1.91 32.154 1.91 32.155 1.91v-28.952H43.17z"/><path d="M204.038 144.432 11.129 132.973l-1.411-1.477-.243-17.493 1.5-1.521h193.151l1.5 1.5v28.952zM12.699 130.061l189.928 11.282v-25.86H12.496z"/></g><path d="M213.602 131.476H1.5v-39.36h212.102v32.795z" fill="#ee4878"/><path d="M213.602 132.975H1.5l-1.5-1.5V92.116l1.5-1.5h212.102l1.5 1.5v39.359zM3 129.975h209.102V93.616H3z" fill="#231f20"/><path d="M115.204 131.718H99.898V92.116h15.306v32.997z" fill="#c3acf1"/><path d="M115.204 133.219H99.898l-1.5-1.5V92.116l1.5-1.5h15.306l1.5 1.5v39.602zm-13.806-3h12.306V93.616h-12.306z" fill="#231f20"/></svg></g><g transform="translate(832.0 358.0) rotate(0.0 -108.0 107.0) scale(-1.0041747636005245 1.0039783816243808)"><svg width="215.102" height="213.152" viewBox="0 0 215.102 213.152"><path d="m110.438 82.004-2.477.11-2.48.111-2.48.111-2.48.111-2.485.11-2.485.111-.948-8.134-2.716-7.701-5.397-6.074-7.396-3.449-8.002-1.744-8.118-1.127-13.51-2.138-12.986-4.22-11.17-7.784-7.725-11.212-4.162-13-1.583-13.583 2.477-.111 2.48-.11 2.48-.111 2.481-.111 2.484-.111 2.485-.111 1.063 10.157 2.83 9.792 5.694 8.401 8.608 5.372 9.849 2.633 10.108 1.467L76.425 41.4l11.225 3.165 10.022 5.897 7.301 9.031 3.996 10.934z" fill="#ee4878"/><path d="m95.619 84.167-1.557-1.325-.929-7.968-2.562-7.266-4.996-5.622-6.963-3.247-7.783-1.697-8.061-1.119L49 53.728l-12.986-4.22-.394-.196-11.17-7.784-.378-.379-7.726-11.212-.193-.394L11.93 16.26 10.349 2.676l1.423-1.672L26.659.339l1.559 1.342 1.049 10.024 2.727 9.436 5.382 7.941 8.149 5.085 9.547 2.553 10.021 1.454 11.74 1.781 11.579 3.316 10.022 5.897.406.35 7.301 9.03.242.428 4.075 11.26 1.469 11.576-1.421 1.688zM49.815 50.838l13.394 2.119 8.203 1.143 8.317 1.851 7.396 3.448.487.363 5.397 6.074.293.498 2.791 8.027.786 6.747 11.865-.53-1.243-9.794-3.853-10.542-6.973-8.625-9.62-5.661-10.948-3.087-11.455-1.727-10.272-1.501-9.849-2.633-.407-.177-8.609-5.372-.448-.431-5.693-8.4-.199-.425-2.879-10.053-.916-8.751-11.865.529 1.379 11.838 4.049 12.649 7.446 10.806 10.764 7.501z" fill="#231f20"/><path d="m113.41 86.223-1.55-1.006-1.551-1.007-1.549-1.005-1.553-1.008-1.555-1.009-1.555-1.009-.861-13.287 1.04-13.281 2.631-13.061 4.258-12.622 6.242-11.758 9.005-9.737 3.889-2.407 4.249-1.687 4.493-.84 4.57.062 4.476.927 4.254 1.682 4.223 2.631 3.547 3.486 2.659 4.201 1.677 4.682.731 4.922-.102 4.979-3.367 13.038-6.285 11.939-8.27 10.669-9.885 9.192-11.316 7.353zm27.847-69.909-1.081.039-1.065.182-1.034.317-.99.435-.942.532-.895.61-5.987 6.732-4.19 8.015-3.052 8.52-2.16 8.793-1.328 8.958-.433 9.044 7.626-4.68 6.882-5.723 6.098-6.553 5.215-7.275 4.074-7.966 2.246-8.636.09-1.977-.149-1.973-.475-1.921-.892-1.761-1.345-1.447-1.681-1.024-.719-.33-.735-.29-.75-.243-.766-.19-.777-.128z" fill="#ee4878"/><path d="m113.961 87.618-1.368-.137-9.314-6.043-.68-1.161-.861-13.287.001-.214 1.065-13.46 2.68-13.244 4.355-12.846 6.465-12.074 9.005-9.737.312-.257 4.125-2.525 4.527-1.768L139.061 0l4.853.094 4.724 1 4.495 1.804 4.481 2.834 3.763 3.753 2.804 4.497 1.749 4.968.747 5.173-.149 5.324-3.492 13.362-6.427 12.159-8.434 10.848-10.09 9.352-11.582 7.49zm-8.417-8.287 8.033 5.213 11.683-4.621 11.081-7.2 9.701-9.021 8.114-10.468 6.142-11.668 3.28-12.699.095-4.678-.691-4.651-1.571-4.387-2.478-3.914-3.305-3.249-3.967-2.471-4.007-1.584-4.209-.871-4.277-.059-4.203.787-3.991 1.584-3.603 2.229-8.734 9.444-6.093 11.478-4.189 12.417-2.594 12.879-1.024 13.083zm13.34-9.561-2.283-1.35.448-9.192 1.355-9.096 2.204-8.941 3.135-8.709 4.399-8.318 6.263-6.974 1.002-.676 1.077-.6 1.153-.496 1.221-.362 1.264-.203 1.081-.039 1.082.078.895.151.868.219.75.243 1.772.766 1.681 1.024.318.26 1.345 1.447.24.343 1.01 2.079.514 2.168.152 2.155-.137 2.286-2.362 8.942-4.191 8.157-5.336 7.423-6.237 6.684-7.056 5.848zm1.144-10.177-.294 6.135 5.115-3.14 6.725-5.593 5.968-6.413 5.094-7.106 3.948-7.72 2.165-8.325.079-1.729-.133-1.757-.404-1.634-.719-1.42-1.059-1.14-1.429-.871-1.3-.552-1.268-.358-.652-.107-.636-.048-.897.033-.872.149-.858.263-.842.37-.822.464-.69.47-5.741 6.455-4.057 7.76-2.991 8.35-2.125 8.649z" fill="#231f20"/><path d="m124.315 92.116-.567-4.34-1.676-4.043-2.667-3.471-3.471-2.666-4.043-1.676-4.34-.568-4.34.568-4.043 1.676-3.471 2.667-2.667 3.47-1.676 4.043-.567 4.34.567 4.341 1.677 4.043 2.666 3.471 3.471 2.666 4.043 1.676 4.34.567 4.341-.567 4.043-1.676 3.47-2.667 2.667-3.47 1.676-4.043z" fill="#ee4878"/><path d="M107.745 110.368h-.389l-4.34-.567-.38-.102-4.043-1.676-.339-.196-3.471-2.666-.276-.275-2.667-3.471-.196-.34-1.676-4.043-.102-.38-.567-4.34v-.389l.567-4.34.102-.38 1.676-4.043.196-.34 2.666-3.47.276-.275 3.471-2.667.339-.196 4.043-1.676.38-.102 4.34-.567h.389l4.34.567.38.102 4.043 1.676.339.196 3.471 2.667.276.275 2.667 3.471.196.339 1.676 4.043.102.38.567 4.34v.389l-.567 4.34-.102.38-1.676 4.043-.196.34-2.666 3.471-.276.275-3.471 2.667-.339.196-4.043 1.676-.38.102zm-4.143-3.516 3.949.516 3.949-.516 3.677-1.525 3.158-2.426 2.426-3.158 1.524-3.677.516-3.949-.516-3.949-1.525-3.677-2.427-3.158-3.158-2.426-3.677-1.525-3.949-.516-3.949.516-3.677 1.525-3.158 2.427-2.425 3.156-1.524 3.677-.516 3.949.516 3.949 1.525 3.677 2.427 3.158 3.158 2.426z" fill="#231f20"/><path d="M204.127 211.652H10.975v-97.669h193.152v81.387z" fill="#fff"/><path d="M204.127 213.151H10.975l-1.5-1.5v-97.669l1.5-1.5h193.151l1.5 1.5v97.669zm-191.652-3h190.151v-94.669H12.475z" fill="#231f20"/><path d="M115.204 211.206H99.898v-79.69h15.306v66.402z" fill="#ee4878"/><g fill="#231f20"><path d="M115.204 212.706H99.898l-1.5-1.5v-79.69l1.5-1.5h15.306l1.5 1.5v79.69zm-13.806-3h12.306v-76.69h-12.306z"/><path d="m10.975 113.983.041 2.91.04 2.914.041 2.914.04 2.915.041 2.92.04 2.92 32.149 1.909 32.15 1.91 32.151 1.91 32.15 1.91 32.154 1.91 32.155 1.91v-28.952H43.17z"/><path d="m204.038 144.433-192.909-11.46-1.411-1.477-.243-17.493 1.5-1.521h193.151l1.5 1.5v28.953zM12.699 130.061l189.928 11.282v-25.861H12.496z"/></g><path d="M213.602 131.476H1.5v-39.36h212.102v32.795z" fill="#fff"/><path d="M213.602 132.976H1.5l-1.5-1.5v-39.36l1.5-1.5h212.102l1.5 1.5v39.359zM3 129.976h209.102v-36.36H3z" fill="#231f20"/><path d="M115.204 131.718H99.898V92.116h15.306v32.997z" fill="#ee4878"/><path d="M115.204 133.218H99.898l-1.5-1.5V92.116l1.5-1.5h15.306l1.5 1.5v39.602zm-13.806-3h12.306V93.616h-12.306z" fill="#231f20"/></svg></g><g transform="translate(350.0 119.0) rotate(0.0 153.0 280.0) scale(0.30554107730189256 0.3060328362303531)"><svg width="1001.502" height="1829.869" viewBox="0 0 1001.502 1829.869"><path d="M819.711 1822.369H107.5c-55.229 0-100-44.772-100-100V107.5c0-55.228 44.771-100 100-100h712.211c55.228 0 100 44.772 100 100v1614.869c0 55.228-44.772 100-100 100" fill="#430c61"/><path d="M819.711 1829.869H107.5c-59.276 0-107.5-48.224-107.5-107.5V107.5C0 48.224 48.224 0 107.5 0h712.211c59.276 0 107.5 48.224 107.5 107.5v1614.869c0 59.276-48.224 107.5-107.5 107.5zM107.5 15C56.495 15 15 56.495 15 107.5v1614.869c0 51.005 41.495 92.5 92.5 92.5h712.211c51.005 0 92.5-41.495 92.5-92.5V107.5c0-51.005-41.495-92.5-92.5-92.5z" fill="#430c61"/><path d="M894.002 1822.369H181.791c-55.229 0-100-44.772-100-100V107.5c0-55.228 44.771-100 100-100h712.211c55.229 0 100 44.772 100 100v1614.869c0 55.228-44.771 100-100 100" fill="#fff4e2"/><g fill="#f3dfbf"><path d="M81.791 1196.668h116.435c12.779 0 23.154 10.375 23.154 23.154v578.631c0 12.779-10.375 23.154-23.154 23.154H171.46c-49.489 0-89.668-40.179-89.668-89.668v-535.271zm305.035 0h235.915c13.528 0 24.511 10.983 24.511 24.511v600.429H362.316v-600.429c0-13.528 10.983-24.511 24.511-24.511zm380.75 0h219.761v548.197c0 42.355-34.387 76.742-76.742 76.742H767.576c-13.648 0-24.729-11.081-24.729-24.729v-575.481c0-13.648 11.081-24.729 24.729-24.729zm108.622-395.234h123.394v257.362H876.198c-13.992 0-25.351-11.36-25.351-25.351V826.786c0-13.992 11.36-25.351 25.351-25.351zm40.406-786.305h20.111c31.005 15.775 36.505 31.346 59.754 59.754V654.37h-79.866c-9.391 0-17.004-7.613-17.004-17.004V32.134c0-9.391 7.613-17.004 17.004-17.004zM81.791 759.062h627.908c13.328 0 24.149 10.821 24.149 24.149v251.436c0 13.328-10.821 24.149-24.149 24.149H81.791V759.063zm9.432-567.716h186.064c5.206 0 9.433 4.227 9.433 9.433v441.095c0 5.206-4.227 9.433-9.433 9.433H81.791V200.779c0-5.206 4.227-9.433 9.433-9.433z"/><rect height="342.627" rx="26.809" width="318.635" x="365.379" y="308.679"/><path d="M189.925 4.753h578.687c13.099 0 23.734 10.635 23.734 23.734v161.979c0 13.099-10.635 23.734-23.734 23.734H105.525c-13.099 0-23.734-10.635-23.734-23.734v-77.578c0-59.681 48.454-108.135 108.135-108.135z"/></g><path d="M629.015 55.678H446.778c-16.354 0-29.611 13.257-29.611 29.611s13.257 29.611 29.611 29.611h182.237c16.354 0 29.611-13.257 29.611-29.611s-13.257-29.611-29.611-29.611" fill="#430c61"/><path d="M629.015 122.4H446.778c-20.463 0-37.111-16.648-37.111-37.111s16.648-37.111 37.111-37.111h182.237c20.463 0 37.111 16.648 37.111 37.111S649.478 122.4 629.015 122.4zM446.778 63.178c-12.192 0-22.111 9.919-22.111 22.111s9.919 22.111 22.111 22.111h182.237c12.192 0 22.111-9.919 22.111-22.111s-9.919-22.111-22.111-22.111z" fill="#430c61"/><path d="M894.002 1829.869H181.791c-59.276 0-107.5-48.224-107.5-107.5V107.5c0-59.276 48.224-107.5 107.5-107.5h712.211c59.275 0 107.5 48.224 107.5 107.5v1614.869c0 59.276-48.224 107.5-107.5 107.5zM181.791 15c-51.005 0-92.5 41.495-92.5 92.5v1614.869c0 51.005 41.495 92.5 92.5 92.5h712.211c51.005 0 92.5-41.495 92.5-92.5V107.5c0-51.005-41.495-92.5-92.5-92.5z" fill="#430c61"/><path d="M684.014 1787.159H391.778a7.5 7.5 0 0 1 0-15h292.236a7.5 7.5 0 0 1 0 15z" fill="#430c61"/></svg></g><g transform="translate(437.0 322.0) rotate(0.0 77.5 77.5) scale(5.871212121212121 5.871212121212121)"><svg width="26.4" height="26.4" viewBox="0 0 26.4 26.4"><circle cx="13.2" cy="13.2" fill="#142664" r="13.2"/><path d="M10.3 15c.4.4.9.4 1.3 0l7.5-7.5c.4-.4.9-.4 1.3 0l1.8 1.8c.4.4.4.9 0 1.3L11.6 21.2c-.4.4-.9.4-1.3 0l-6.1-6.1c-.4-.4-.4-.9 0-1.3L6 12c.2-.2.4-.3.7-.3.2 0 .5.1.7.3.7.8 2.1 2.2 2.9 3z" fill="#00e6b3"/></svg></g></svg>