<svg height="70.27658" viewBox="0 0 68.06763 70.27658" width="68.06763" xmlns="http://www.w3.org/2000/svg"><path d="m67.8778 52.86533c-.4-3-.9-5.9-1.3-8.9a114.57808 114.57808 0 0 0 -1.9-11.7c-1.2-8.3-.3-23-7.2-28.9-3.8-3.2-9.1-2.7-13.9-2.8-6.3-.1-12.7-.3-19.2-.4-8.4-.1-19.6-1.8-22.6 8.4-3.2 11.1-1.3 25.5-.3 36.7.9 9.9 0 22.7 12.1 24 15.2 1.8 31 .9 46-.4a4.39734 4.39734 0 0 0 4.1-2.7c3.7-2.09999 4.90002-8.09999 4.2-13.3z" fill="#ef86b0"/><path d="m49.3778 46.26533c-.3-7.4-5.8-10.8-12-12.4 4.4-4.6 8.4-10 5.2-15.3-5.5-8.9-15.2-2.4-22.6-2.7-5.8-.1-5.8 8.7 0 8.9 3 .1 11.7-3.5 13.6-2.2 1.8 1.3-7.7 10.3-9 11.7-2.5 2.8-.9 7.7 3.1 7.5 3.4 0 10.5-.6 12.4 3.1-.4 1.9-.9 3.8-1.3 5.8a11.425 11.425 0 0 1 -6 3c-2.8.6-5.9.4-8.7.4-5.8 0-5.8 8.9 0 8.9 10.10002-.1 25.8-2.99999 25.3-16.7z" fill="#fff"/></svg>