<svg xmlns="http://www.w3.org/2000/svg" xmlns:xlink="http://www.w3.org/1999/xlink" width="1080" zoomAndPan="magnify" viewBox="0 0 810 809.999993" height="1080" preserveAspectRatio="xMidYMid meet" version="1.0"><defs><clipPath id="03bd512f74"><path d="M 212.902344 259.007812 L 394 259.007812 L 394 550.757812 L 212.902344 550.757812 Z M 212.902344 259.007812 " clip-rule="nonzero"/></clipPath><clipPath id="01eac0aa9b"><path d="M 411 259.007812 L 596.902344 259.007812 L 596.902344 550.757812 L 411 550.757812 Z M 411 259.007812 " clip-rule="nonzero"/></clipPath></defs><rect x="-81" width="972" fill="#ffffff" y="-80.999999" height="971.999992" fill-opacity="1"/><rect x="-81" width="972" fill="#ffffff" y="-80.999999" height="971.999992" fill-opacity="1"/><rect x="-81" width="972" fill="#a1cfd8" y="-80.999999" height="971.999992" fill-opacity="1"/><g clip-path="url(#03bd512f74)"><path fill="#ffffff" d="M 312.273438 383.875 C 294.109375 383.875 277.394531 389.925781 263.882812 400.003906 C 265.210938 357.941406 297.738281 315.863281 361.910156 273.78125 L 352.386719 259.007812 C 259.402344 316.761719 212.902344 380.148438 212.902344 449.15625 C 212.902344 480.84375 221.527344 505.675781 238.792969 523.617188 C 256.046875 541.589844 277.890625 550.550781 304.308594 550.550781 C 330.738281 550.550781 352.035156 543.34375 368.242188 528.902344 C 384.441406 514.480469 392.550781 497.03125 392.550781 476.621094 C 392.550781 476.390625 392.507812 476.222656 392.507812 475.976562 C 393.003906 472.355469 393.351562 468.699219 393.351562 464.917969 C 393.351562 420.171875 357.039062 383.875 312.273438 383.875 Z M 312.273438 383.875 " fill-opacity="1" fill-rule="nonzero"/></g><g clip-path="url(#01eac0aa9b)"><path fill="#ffffff" d="M 574.425781 520.875 C 575.472656 519.660156 576.742188 518.507812 577.707031 517.238281 C 589.648438 503.117188 596.902344 484.886719 596.902344 464.921875 C 596.902344 420.175781 560.597656 383.867188 515.828125 383.867188 C 495.324219 383.867188 476.65625 391.539062 462.375 404.097656 C 462.375 403.601562 462.292969 403.175781 462.292969 402.664062 C 462.292969 359.710938 495.042969 316.734375 560.574219 273.773438 L 551.058594 259.007812 C 458.0625 316.761719 411.5625 380.148438 411.5625 449.171875 C 411.5625 480.859375 420.1875 505.6875 437.460938 523.628906 C 454.707031 541.601562 476.550781 550.574219 502.964844 550.574219 C 529.382812 550.574219 550.703125 543.355469 566.902344 528.90625 C 569.195312 526.890625 570.972656 524.625 572.933594 522.464844 C 573.453125 521.949219 573.917969 521.414062 574.425781 520.875 Z M 574.425781 520.875 " fill-opacity="1" fill-rule="nonzero"/></g></svg>