<svg xmlns="http://www.w3.org/2000/svg" viewBox="0 0 3000 3000" width="3000" height="3000"><g transform="translate(1594.2857142857142 2743.9285714285716) rotate(0.0 77.67857142857144 15.53571428571422) scale(0.5563132214806987 0.554391545720095)"><svg width="279.262" height="56.046" viewBox="0 0 279.262 56.046"><ellipse cx="139.631" cy="28.023" fill="#232323" rx="139.631" ry="28.023"/></svg></g><g transform="translate(838.9285714285714 469.2857142857143) rotate(0.0 724.8214285714284 1152.857142857143) scale(1.0714420337453294 1.0719924633749192)"><svg width="1352.983" height="2150.868" viewBox="0 0 1352.983 2150.868"><clipPath id="a"><path d="M120.525 545.017C204.364 659.18 300.974 838.532 420.003 845.08c89.074 4.9 149.245-53.022 180.867-91.123s77.784-149.639 87.853-208.915c11.688-68.806 2.731-164.197-70.023-184.563-93.716-26.233-170.993 186.497-198.697 263.913 0 0-134.4-129.338-214.432-190.028z"/></clipPath><clipPath id="b"><path d="m1022.901 922.687 4.255 42.861-100.721 111.495-29.194-19.81z"/></clipPath><clipPath id="c"><path d="M825.077 319.52c17.781-20.779-18.671-56.74-9.557-75.386 18.984-38.838 51.948-113.949 23.037-176.06C811.215 9.331 749.942-.672 708.851 2.338c-44.74 3.277-86.084 29.378-103.138 66.487 0 0 23.141-3.536 42.882 8.471 21.635 13.159 66.686 62.833 90.653 87.816 0 0-13.728 49.125-48.331 71.936-18.768 12.372-33.414 20.923-44.125 26.279-7.858 3.929-14.559 6.32-21.117 7.204 2.211 21.693.44 49.176-3.423 63.719-12.314 1.853-25.171 6.805-24.81 17.109-8.649.713-22.735 6.37-21.024 18.859 2.12 15.474 28.185 104.916 67.289 108.381 38.399 3.402 183.589-98.56 213.244-137.859-7.85-9.29-17.578-17.135-31.874-21.22z"/></clipPath><path d="M655.23 1937.567c179.581 43.661 273.268-1.822 252.694-57.674-48.36-115.302-252.771 57.637-252.694 57.674M427.578 994.053c43.215-116.223 159.251-464.066 160.795-469.635L553.375 735.28l235.989 70.406-35.261 488.896s-69.403-7.954-195.859-35.116c-108.133-23.226-220.035-107.873-220.035-107.873s57.649-72.232 89.369-157.54z" fill="#232323"/><path d="M852.821 789.57c63.578-14.653 163.093-24.584 158.54 30.359-4.351 52.504-389.639 103.291-477.749 18.866 0-.002 92.364 3.058 319.209-49.225m101.268 428.728c63.578-14.653 143.193-9.726 165.119 28.223 15.661 27.105-110.304 153.929-508.339 1.292 0-.001 116.375 22.769 343.22-29.515" fill="#232323"/><path d="M700.943 1762.285s11.811 235.782 11.89 236.154c-.784 5.832-21.289 63.662-33.22 67.089-16.617 4.77-39.063-.367-56.812-6.421a12.038 12.038 0 0 0-1.511-.533c-15.565-5.625-24.05-12.328-24.156-12.462-12.799-33.783-53.909-156.836-68.102-218.826z" fill="#fff"/><path d="M664.688 2070.424c-11.965 0-26.304-2.832-42.855-8.478a2.653 2.653 0 0 1-.215-.083 9.151 9.151 0 0 0-1.135-.4 2.591 2.591 0 0 1-.211-.068c-15.165-5.48-24.703-12.425-25.491-13.425a2.992 2.992 0 0 1-.45-.795c-13.526-35.701-54.358-158.672-68.221-219.22a3.002 3.002 0 0 1 1.863-3.476l171.911-65.001a3 3 0 0 1 4.057 2.656c.116 2.326 11.635 232.267 11.883 236.047a3.01 3.01 0 0 1-.016.657c-.459 3.413-5.972 19.71-12.647 35.232-13.649 31.736-20.475 33.696-22.718 34.34-4.677 1.344-9.936 2.014-15.755 2.014zm-40.816-14.122c16.093 5.48 38.646 11.012 54.914 6.342 1.058-.304 6.94-3.224 18.862-30.944 6.697-15.571 11.69-30.726 12.187-33.498-.267-4.493-1.764-33.683-11.681-231.656l-165.606 62.617c14.236 60.691 53.513 179.034 67.094 215.096 2.012 1.484 9.717 6.799 22.57 11.457.562.163 1.12.36 1.66.586zm-26.738-10.19h.01z" fill="#232323"/><path d="m707.714 1900.875 5.842 90.603s-23.993 70.559-35.513 73.985l-54.852-6.42a10.94 10.94 0 0 0-1.459-.534c-15.029-5.624-23.296-11.198-26.472-13.518-12.42-33.731-23.597-68.72-37.516-114.898z" fill="#d9c6f4"/><path d="m709.558 1929.466-144.469 24.769 2.519 8.153 142.51-24.227c-.165-2.902-.418-6.015-.56-8.695z" fill="#fff"/><path d="M664.688 2070.424c-11.965 0-26.304-2.832-42.855-8.478a2.653 2.653 0 0 1-.215-.083 9.151 9.151 0 0 0-1.135-.4 2.591 2.591 0 0 1-.211-.068c-15.165-5.48-24.703-12.425-25.491-13.425a2.992 2.992 0 0 1-.45-.795c-13.526-35.701-54.358-158.672-68.221-219.22a3.002 3.002 0 0 1 1.863-3.476l171.911-65.001a3 3 0 0 1 4.057 2.656c.116 2.326 11.635 232.267 11.883 236.047a3.01 3.01 0 0 1-.016.657c-.459 3.413-5.972 19.71-12.647 35.232-13.649 31.736-20.475 33.696-22.718 34.34-4.677 1.344-9.936 2.014-15.755 2.014zm-40.816-14.122c16.093 5.48 38.646 11.012 54.914 6.342 1.058-.304 6.94-3.224 18.862-30.944 6.697-15.571 11.69-30.726 12.187-33.498-.267-4.493-1.764-33.683-11.681-231.656l-165.606 62.617c14.236 60.691 53.513 179.034 67.094 215.096 2.012 1.484 9.717 6.799 22.57 11.457.562.163 1.12.36 1.66.586zm-26.738-10.19h.01z" fill="#232323"/><path d="M712.095 1965.985s-19.022-3.664-36.718 16.583c-36.357 41.325-75.973 9.499-131.938 22.795-120.705 28.714-158.708 115.417-158.708 115.417 17.088 23.206 67.853 27.088 67.853 27.088l273.927-4.165c-5.31-71.527-14.416-177.718-14.416-177.718" fill="#fff"/><path d="M452.584 2150.868a2.94 2.94 0 0 1-.229-.009c-2.129-.163-52.34-4.263-70.04-28.3a3 3 0 0 1-.332-2.983c.397-.905 10.003-22.465 34.687-47.829 22.712-23.336 63.021-54.303 126.074-69.302 22.282-5.294 42.167-3.574 59.712-2.057 27.646 2.392 49.482 4.281 70.668-19.801 18.61-21.293 38.692-17.71 39.538-17.547a3 3 0 0 1 2.422 2.689c.091 1.062 9.168 107.026 14.419 177.752a3 3 0 0 1-2.946 3.222l-273.927 4.165h-.046zm-64.347-30.474c16.66 20.092 61.697 24.238 64.448 24.472l270.598-4.114c-4.822-64.515-12.586-155.869-13.965-172.028-5.21-.207-18.672.933-31.682 15.819-23.195 26.364-47.524 24.26-75.696 21.824-17.093-1.479-36.466-3.155-57.807 1.916-61.651 14.666-101.004 44.883-123.162 67.65-20.172 20.724-30.067 39.078-32.734 44.461z" fill="#232323"/><path d="M722.06 2089.876a.5.5 0 0 0-.215-.363c-10.474-7.178-31.545-18.604-55.015-14.492-11.947 2.117-20.291 8.664-28.36 14.995l-.104.081c-7.823 6.188-15.212 12.032-25.899 14.278-8.314 1.794-15.022.245-21.509-1.25l-.431-.1c-5.483-1.326-11.699-2.829-18.641-1.914-3.778.504-9.462 2.729-17.33 5.808l-.672.263c-16.569 6.596-41.609 16.562-71.098 18.871-31.937 2.464-61.854-4.973-88.92-22.119a.501.501 0 0 0-.687.15 181.243 181.243 0 0 0-2.374 3.754.5.5 0 0 0 .158.684c27.537 17.45 54.868 23.335 79.725 23.334 35.792-.002 66.45-12.205 85.166-19.656l.101-.04c7.444-2.956 13.323-5.29 16.514-5.728 6.057-.756 11.514.548 16.792 1.81 7.149 1.709 14.541 3.479 24.339 1.416 11.917-2.481 20.161-9.003 28.142-15.316 7.9-6.225 15.363-12.104 26.028-13.959 23.767-4.114 45.735 9.75 54.078 15.904a.497.497 0 0 0 .543.032.498.498 0 0 0 .251-.482c-.193-1.985-.386-3.973-.582-5.961zm-90.956-61.177a.15.15 0 0 0 .021.002c12.477.729 20.9 7.927 29.046 14.889l.307.262c1.958 1.725 4.561 3.967 7.339 6.017 12.388 9.267 22.786 11.674 31.734 11.674 5.23 0 9.965-.822 14.313-1.577l1.709-.28c.978-.161 1.922-.317 2.85-.457a.499.499 0 0 0 .422-.548l-.485-4.503a.505.505 0 0 0-.189-.341.49.49 0 0 0-.376-.101c-1.234.17-2.472.386-3.783.615l-1.192.207c-11.275 1.971-24.053 4.206-41.904-9.061-2.347-1.725-4.652-3.728-7.006-5.803-8.012-6.936-17.984-15.566-32.481-16.456-1.498-.031-2.753 1.114-2.818 2.608a2.777 2.777 0 0 0 2.493 2.853z" fill="#232323"/><path d="M675.049 2133.282a41.616 41.616 0 0 0 17.961-3.561c6.608-3.052 10.798-7.784 10.806-13.201-.02-9.454-12.619-16.868-28.663-16.892-16.044-.026-28.751 7.39-28.768 16.765-.03 4.746 3.131 9.081 8.875 12.315a41.1 41.1 0 0 0 19.789 4.574m-99.157-68.089c-.108-.395-11.306-39.718-56.404-61.383-3.214-1.516-7.063-.133-8.58 3.081-1.482 3.143-.159 6.963 2.948 8.517l.13.064c38.032 18.255 49.097 51.93 49.553 53.366.836 2.789 3.412 4.601 6.19 4.601.6 0 1.209-.084 1.812-.262l.2-.066c3.283-1.072 5.142-4.636 4.151-7.918zm-92.487-52.196a6.415 6.415 0 0 0-8.17 3.922c-1.12 3.188.44 6.715 3.58 8.04 38.554 15 51.573 51.035 51.699 51.394a6.333 6.333 0 0 0 3.216 3.669 6.35 6.35 0 0 0 4.862.321l.147-.05a6.48 6.48 0 0 0 3.93-8.19c-.139-.415-14.338-41.679-59.264-59.106zm-29.391 15.677c-1.615-.566-3.355-.472-4.898.269s-2.706 2.039-3.272 3.654c-1.121 3.188.44 6.714 3.58 8.039 38.555 15 51.573 51.035 51.699 51.394a6.335 6.335 0 0 0 3.217 3.669 6.346 6.346 0 0 0 4.828.332l.181-.061a6.48 6.48 0 0 0 3.929-8.188c-.14-.416-14.305-41.668-59.264-59.108z" fill="#00676c"/><path d="M585.245 865.055c-.073 0-.146-.003-.22-.009-24.687-2.154-47.202-14.041-50.839-23.23-.986-2.49-.648-4.845.95-6.631 4.841-5.41 20.857-4.458 47.602 2.828a2.5 2.5 0 0 1-1.314 4.824c-36.279-9.884-42.025-4.917-42.562-4.318-.146.164-.418.468-.027 1.457 2.615 6.606 22.545 17.989 46.625 20.089a2.5 2.5 0 0 1-.215 4.99z" fill="#fff"/><path d="M798.379 1600.969a783.233 783.233 0 0 1-2.547-8.976 105.17 105.17 0 0 0-.461-1.656c-18.174-66.19-28.774-139.806-22.916-219.429 16.989-230.816 115.118-355.827 88.059-475.379-22.023-97.289-131.714-102.698-203.215-90.852-23.699 3.919-51.816 5.398-62.534 10.405-107.848 273.439-176.002 694.314-37.079 1113.574 50.123 8.328 128.333-13.228 150.426-23.478 56.33-26.134 156.048-104.601 196.944-23.699-20.909-57.722-83.504-200.643-106.677-280.51" fill="#fff"/><path d="M582.916 1933.531c-9.032 0-17.708-.584-25.722-1.916a3 3 0 0 1-2.356-2.016c-33.196-100.182-56.113-205.5-68.114-313.03-10.923-97.865-12.952-198.661-6.031-299.589 15.154-220.961 68.879-395.494 111.281-502.999a2.998 2.998 0 0 1 1.521-1.617c7.451-3.48 21.707-5.22 38.215-7.233 8.349-1.018 16.981-2.071 25.1-3.414 25.876-4.286 76.076-9.391 121.533 4.593 46.396 14.273 75.026 44.067 85.097 88.557 14.247 62.945-5.448 126.324-30.382 206.565-23.193 74.638-49.48 159.233-57.611 269.696-5.283 71.812 2.18 143.255 22.817 218.414.153.534.314 1.11.466 1.674a778.071 778.071 0 0 0 2.531 8.918c15.223 52.466 47.721 132.752 73.835 197.263 13.751 33.972 25.627 63.312 32.781 83.059a3 3 0 0 1-5.498 2.376c-8.454-16.724-19.639-27.026-34.194-31.495-35.575-10.926-84.668 16.336-124.113 38.241-12.513 6.949-24.333 13.512-34.698 18.321-18.086 8.392-77.411 25.629-126.458 25.632zm-22.955-7.553c50.297 7.562 126.18-13.914 146.889-23.521 10.167-4.717 21.895-11.229 34.31-18.124 40.44-22.457 90.769-50.405 128.787-38.731 9.016 2.769 16.995 7.676 23.87 14.663-6.666-17.096-15.051-37.811-24.282-60.615-26.165-64.638-58.727-145.082-74.036-197.845l-.001-.002c-.865-2.99-1.722-5.99-2.557-9.01a97.956 97.956 0 0 0-.454-1.631c-20.83-75.861-28.358-147.969-23.024-220.474 8.181-111.147 34.577-196.091 57.865-271.036 24.668-79.383 44.152-142.085 30.26-203.461-9.562-42.24-36.817-70.551-81.009-84.146-44.282-13.623-93.432-8.609-118.79-4.408-8.245 1.364-16.942 2.424-25.353 3.45-14.554 1.775-28.341 3.457-35.337 6.254-42.175 107.205-95.374 280.649-110.421 500.051-6.897 100.57-4.876 201.004 6.008 298.513 11.887 106.493 34.52 210.807 67.275 310.073zm532.012-136.395c154.861-67.904 261.965-247.192 175.656-279.732-113.26-42.702-174.357 236.907-175.656 279.732" fill="#232323"/><path d="M1074.436 1609.722c9.485 10.866 68.774 57.096 77.731 65.207 4.709 4.147 9.514 8.365 14.431 12.738 17.501 15.257 36.815 31.078 57.121 46.664.289.21.5.436.792.647 3.433 4.782 27.705 61.189 21.231 71.775-8.896 14.76-28.828 26.216-46.01 33.875a8.936 8.936 0 0 0-1.539.591c-15.22 6.484-26.006 7.354-26.188 7.296-32.411-15.962-82.741-42.812-124.71-66.874-17.603-9.994-57.84-37.239-71.192-45.995z" fill="#fff"/><path d="M1171.971 1851.459c-.405 0-.699-.028-.871-.083a3.008 3.008 0 0 1-.421-.169c-34.282-16.884-84.466-43.794-124.876-66.963-13.903-7.893-41.358-26.163-59.526-38.251a2358.122 2358.122 0 0 0-11.82-7.837 3.002 3.002 0 0 1-.72-4.355l98.333-125.924a3 3 0 0 1 2.282-1.153 3.057 3.057 0 0 1 2.342 1.026c6.059 6.941 34.001 29.517 54.403 46.001 11.144 9.003 19.945 16.115 23.081 18.955l2.633 2.317a2949.85 2949.85 0 0 1 11.778 10.403c17.887 15.593 37.057 31.253 56.954 46.526.154.111.345.272.535.437.06.052.118.107.188.158.262.189.492.419.68.682 2.642 3.68 29.284 62.123 21.353 75.09-7.622 12.646-23.555 24.444-47.347 35.05a3.145 3.145 0 0 1-.411.148 5.93 5.93 0 0 0-1.023.394c-.049.024-.1.047-.151.069-12.893 5.492-24.016 7.479-27.396 7.479zM980.468 1734.93c2.537 1.677 5.641 3.744 9.133 6.067 18.097 12.042 45.446 30.241 59.175 38.035 40.036 22.954 89.66 49.575 123.819 66.429 2.376-.259 11.629-1.562 24.351-6.973a12.091 12.091 0 0 1 1.749-.683c22.231-9.934 37.609-21.205 44.478-32.601.584-.956 2.936-7.077-7.158-35.512-5.579-15.716-12.062-29.906-13.749-32.67l-.125-.108c-.06-.052-.117-.106-.185-.156-20.059-15.396-39.326-31.135-57.329-46.83-4.012-3.567-7.927-7.013-11.777-10.402l-2.666-2.346c-3.042-2.754-12.223-10.172-22.855-18.763-19.561-15.804-43.428-35.088-52.657-44.124z" fill="#232323"/><path d="M1151.414 1674.26c8.099 7.053 52.009 42.419 72.316 58.005.376.201.39 2.431.681 2.642 3.434 4.783 27.706 61.19 21.232 71.776l-46.011 33.875a9.11 9.11 0 0 0-1.54.59c-15.218 6.485-26.003 7.355-26.185 7.298-32.411-15.964-67.977-34.43-109.945-58.493z" fill="#d9c6f4"/><path d="m1092.263 1807.11 86.367-110.557c-2.285-1.784-4.428-3.626-6.55-5.288l-87.308 111.77c2.497 1.362 4.995 2.722 7.491 4.075z" fill="#fff"/><path d="M1171.971 1851.459c-.405 0-.699-.028-.871-.083a3.008 3.008 0 0 1-.421-.169c-34.282-16.884-84.466-43.794-124.876-66.963-13.903-7.893-41.358-26.163-59.526-38.251a2358.122 2358.122 0 0 0-11.82-7.837 3.002 3.002 0 0 1-.72-4.355l98.333-125.924a3 3 0 0 1 2.282-1.153 3.057 3.057 0 0 1 2.342 1.026c6.059 6.941 34.001 29.517 54.403 46.001 11.144 9.003 19.945 16.115 23.081 18.955l2.633 2.317a2949.85 2949.85 0 0 1 11.778 10.403c17.887 15.593 37.057 31.253 56.954 46.526.154.111.345.272.535.437.06.052.118.107.188.158.262.189.492.419.68.682 2.642 3.68 29.284 62.123 21.353 75.09-7.622 12.646-23.555 24.444-47.347 35.05a3.145 3.145 0 0 1-.411.148 5.93 5.93 0 0 0-1.023.394c-.049.024-.1.047-.151.069-12.893 5.492-24.016 7.479-27.396 7.479zM980.468 1734.93c2.537 1.677 5.641 3.744 9.133 6.067 18.097 12.042 45.446 30.241 59.175 38.035 40.036 22.954 89.66 49.575 123.819 66.429 2.376-.259 11.629-1.562 24.351-6.973a12.091 12.091 0 0 1 1.749-.683c22.231-9.934 37.609-21.205 44.478-32.601.584-.956 2.936-7.077-7.158-35.512-5.579-15.716-12.062-29.906-13.749-32.67l-.125-.108c-.06-.052-.117-.106-.185-.156-20.059-15.396-39.326-31.135-57.329-46.83-4.012-3.567-7.927-7.013-11.777-10.402l-2.666-2.346c-3.042-2.754-12.223-10.172-22.855-18.763-19.561-15.804-43.428-35.088-52.657-44.124z" fill="#232323"/><path d="M1197.787 1711.565s-12.282 12.465-5.479 37.695c14.095 51.415-32.792 66.42-51.923 118.779-41.167 112.923 8.687 189.913 8.687 189.913 27.812-1.451 58.118-40.461 58.118-40.461l142.793-223.762c-60.746-33.868-152.196-82.164-152.196-82.164z" fill="#fff"/><path d="M1149.071 2060.952a3.001 3.001 0 0 1-2.518-1.37c-.521-.804-12.844-20.089-20.193-53.598-6.762-30.829-10.307-79.964 11.206-138.973 7.621-20.859 19.629-36.017 30.224-49.392 16.664-21.036 29.826-37.651 21.625-67.567-7.172-26.597 5.685-40.034 6.235-40.593a2.998 2.998 0 0 1 3.538-.547c.915.483 92.175 48.699 152.256 82.197a2.998 2.998 0 0 1 1.068 4.234l-142.793 223.762a2.99 2.99 0 0 1-.16.227c-1.272 1.637-31.48 40.112-60.331 41.617-.052.001-.104.003-.157.003zm49.509-345.574c-2.756 3.979-8.298 14.845-3.375 33.101 9.001 32.834-5.695 51.386-22.711 72.868-10.313 13.019-22.002 27.774-29.291 47.723-20.97 57.521-17.58 105.352-11.043 135.347 5.961 27.354 15.548 45.27 18.522 50.395 25.004-2.81 52.365-36.916 54.059-39.057l141-220.953c-54.732-30.444-133.105-71.986-147.161-79.424z" fill="#232323"/><path d="M1309.178 1771.265a2352.31 2352.31 0 0 0-5.022-2.65.497.497 0 0 0-.421-.021c-11.399 4.644-31.895 15.588-41.094 36.723-4.674 10.787-3.839 20.99-3.033 30.857l.033.41c.767 9.541 1.491 18.553-2.344 28.27-3.118 7.893-8.293 12.753-12.859 17.041l-.131.124c-4.175 3.929-8.492 7.992-11.412 13.979-1.642 3.262-2.813 8.854-4.434 16.597l-.367 1.75c-3.52 16.834-8.838 42.272-22.525 67.053-15.011 27.062-36.951 47.271-65.211 60.065a.498.498 0 0 0-.252.655 170.982 170.982 0 0 0 1.729 3.833.5.5 0 0 0 .659.245c70.091-31.612 84.104-98.931 90.839-131.282l.07-.333c1.581-7.513 2.829-13.447 4.215-16.256 2.628-5.287 6.589-8.982 10.44-12.575 5.212-4.925 10.601-10.018 14.126-18.928 4.307-10.896 3.485-21.009 2.69-30.789l-.031-.383c-.782-9.63-1.52-18.726 2.601-28.235 3.866-8.858 14.42-25.215 41.673-35.238a.501.501 0 0 0 .061-.912zm-107.01 38.672a2.728 2.728 0 0 0 2.016.623c.026 0 .053 0 .08-.004a2.342 2.342 0 0 0 1.673-1.014c7.382-9.892 17.82-12.796 27.911-15.604 3.15-.861 5.982-1.658 8.73-2.698 22.327-8.01 28.092-21.245 32.724-31.882a137.218 137.218 0 0 1 1.898-4.238.499.499 0 0 0-.223-.658l-3.758-1.935a.498.498 0 0 0-.681.232 152.178 152.178 0 0 0-2.042 4.498c-4.425 10.176-9.439 21.709-29.69 28.966-2.61.938-5.469 1.74-8.418 2.551l-.318.091c-10.346 2.947-22.073 6.288-30.369 17.442a2.61 2.61 0 0 0 .467 3.63z" fill="#232323"/><path d="M1299.796 1843.412c5.24-2.733 10.311-7.589 14.257-13.555 8.584-12.989 9.411-27.144 1.804-32.202-3.853-2.565-9.063-2.33-14.695.637-5.24 2.732-10.311 7.589-14.257 13.555a41.304 41.304 0 0 0-6.941 18.404c-.527 6.365 1.286 11.234 5.123 13.715a11.486 11.486 0 0 0 8.439 1.657 19.346 19.346 0 0 0 6.27-2.211zm-99.939 20.546v-.115l-.821-.149c-3.959-.717-39.719-6.241-75.321 20.922-2.655 2.058-3.184 5.795-1.182 8.538a6.317 6.317 0 0 0 4.952 2.403c.279 0 .561-.02.841-.058a5.436 5.436 0 0 0 2.729-1.16c30.593-23.314 62.128-19.204 65.622-18.66l.083.013a6 6 0 0 0 4.504-.841 5.994 5.994 0 0 0 2.619-3.808l.022-.111c.606-3.035-1.18-6.016-4.048-6.974zm-10.481 66.962c-.405-.061-41.07-5.685-74.646 24.213a6.073 6.073 0 0 0-.533 8.558 6.1 6.1 0 0 0 5.607 1.959 6.055 6.055 0 0 0 3.064-1.423c28.339-25.212 63.518-21.407 64.824-21.24l.127.02a6.03 6.03 0 0 0 4.475-1.317 6.046 6.046 0 0 0 2.231-4.096 6.081 6.081 0 0 0-5.149-6.674zm2.639-33.266c-.404-.06-41.068-5.685-74.645 24.212a6.028 6.028 0 0 0-2.039 4.169 6.026 6.026 0 0 0 1.506 4.39 6.103 6.103 0 0 0 4.562 2.051c.347 0 .696-.03 1.043-.092a6.065 6.065 0 0 0 3.065-1.424c28.338-25.213 63.518-21.409 64.823-21.24l.127.02a6.052 6.052 0 0 0 4.475-1.316 6.052 6.052 0 0 0 2.232-4.096 6.082 6.082 0 0 0-5.149-6.674z" fill="#00676c"/><path d="M1006.357 1381.627a991.556 991.556 0 0 1-100.036-67.179l-1.852-1.411c.292-11.155 25.487-94.034 46.879-194.614 28.274-132.939 44.83-296.8-61.576-366.845-82.473-54.294-190.128-5.282-221.813 7.653 0 0 7.945 183.939 1.384 278.329-8.23 18.764-18.488 44.299-27.697 74.508v.02a602.144 602.144 0 0 0-10.366 38.39v.02c-16.185 69.129-22.711 154.426 7.23 237.508a332.166 332.166 0 0 0 9.493 23.507c26.246 58.409 67.493 104.756 122.387 155.963l.01.011a1947.986 1947.986 0 0 0 24.973 22.84v.01c14.637 13.17 30.107 26.809 46.39 41.155 63.643 56.076 166.607 130.327 223.789 160.609 137.472-112.945 103.879-309.108 202.077-282.25-41.531-12.789-190.272-86.58-261.272-128.224z" fill="#fff"/><path d="M1065.551 1795.101c-.479 0-.962-.115-1.403-.349-56.564-29.955-159.312-103.688-224.368-161.009-14.652-12.909-31.26-27.541-46.413-41.176a2.601 2.601 0 0 1-.151-.146 1937.043 1937.043 0 0 1-24.861-22.74l-.058-.055c-30.783-28.718-53.717-52.723-72.176-75.544-21.658-26.777-38.292-53.383-50.854-81.339a337.023 337.023 0 0 1-9.579-23.72c-25.462-70.655-27.939-151.087-7.36-239.074.009-.053.02-.104.032-.155a607.295 607.295 0 0 1 10.371-38.429 3.06 3.06 0 0 1 .046-.171c7.521-24.672 16.809-49.687 27.61-74.359 6.41-93.297-1.345-275.639-1.424-277.473a3.001 3.001 0 0 1 1.864-2.907c1.476-.603 3.117-1.284 4.914-2.029 18.623-7.728 53.288-22.112 93.45-28.134 49.521-7.425 91.991.24 126.232 22.782 111.293 73.262 89.177 246.238 62.861 369.975-12.348 58.058-26.175 111.039-35.324 146.098-6.027 23.095-10.528 40.342-11.355 46.508l.536.408c31.678 24.197 65.233 46.731 99.737 66.979 69.138 40.552 218.293 114.905 260.636 127.943a3 3 0 0 1-1.674 5.761c-22.156-6.059-38.008-.817-51.4 16.997-12.668 16.851-22.007 43.407-32.82 74.156-21.133 60.092-47.433 134.878-115.161 190.522a3.024 3.024 0 0 1-1.908.68zM797.53 1588.242c15.09 13.576 31.623 28.142 46.216 40.999 64.096 56.475 164.865 128.911 221.442 159.266 65.298-54.453 91.046-127.675 111.769-186.602 10.979-31.218 20.46-58.179 33.685-75.771 9.71-12.917 20.904-20 34.326-21.499-58.646-23.975-179.805-85.04-240.128-120.421h-.001c-34.713-20.371-68.471-43.041-100.339-67.382l-1.848-1.408a3 3 0 0 1-1.182-2.465c.133-5.068 4.48-21.728 11.683-49.329 9.135-35.006 22.941-87.908 35.26-145.831 18.118-85.186 24.365-150.685 19.662-206.13-2.962-34.918-10.541-65.41-22.526-90.628-13.38-28.153-32.701-50.68-57.427-66.957-77.291-50.882-176.671-9.643-214.084 5.882-1.052.437-2.051.851-2.995 1.241.85 20.738 7.411 188.515 1.292 276.561a2.992 2.992 0 0 1-.246.997c-10.773 24.562-20.035 49.467-27.528 74.024-.014.059-.03.118-.047.175a601.155 601.155 0 0 0-10.283 38.066 2.556 2.556 0 0 1-.031.152c-20.343 86.889-17.944 166.226 7.131 235.807a330.836 330.836 0 0 0 9.407 23.295c16.665 37.087 42.943 81.534 121.697 154.998a1928.936 1928.936 0 0 0 24.943 22.815c.054.047.104.096.152.145z" fill="#232323"/><path d="M906.318 1317.448a2.99 2.99 0 0 1-1.728-.55c-13.993-9.886-28.203-22.864-28.345-22.994a3 3 0 0 1 4.052-4.425c.139.127 14.078 12.856 27.755 22.519a3 3 0 0 1-1.734 5.45z" fill="#232323"/><path d="M204.572 437.414c-146.664-118.62-104.395-53.358-104.395-53.358-135.739-74.321-58.255-2.883-58.255-2.883-79.043-34.045-13.232 22.228-13.232 22.228-62.256-17.661 8.071 31.312 9.586 32.367-52.303-18.537 36.304 47.447 84.968 107.828" fill="#fff"/><path d="M123.247 546.597a2.997 2.997 0 0 1-2.338-1.117c-18.697-23.198-43.619-47.516-63.645-67.055-30.573-29.832-40.958-40.45-37.262-46.388.947-1.521 2.453-2.344 4.802-2.453a261.61 261.61 0 0 1-7.693-6.143C-.314 408.936-1.048 403.568.533 400.231c1.782-3.762 7.029-4.628 17.388-2.58a195.159 195.159 0 0 1-5.568-5.538C1.637 380.988-1.807 374.429.839 370.18c2.141-3.438 7.359-5.276 28.568 2.678a149.434 149.434 0 0 1-2.086-2.304c-9.406-10.609-12.214-16.814-9.389-20.747 2.769-3.855 9.654-3.322 23.021 1.784 12.046 4.601 29.507 13.041 51.986 25.125-2.804-7.415-.673-10.669.671-11.879 4.28-3.852 13.175-1.224 29.742 8.788 18.688 11.293 46.648 31.97 83.106 61.457a3 3 0 0 1-3.773 4.665c-35.71-28.882-63.172-49.235-81.621-60.492-19.926-12.158-23.414-9.976-23.447-9.953-.756 1.178 1.323 7.314 5.079 13.125.745 1.153.613 2.666-.322 3.672s-2.433 1.25-3.637.589c-62.271-34.095-73.825-34.047-75.846-33.336.067 3.047 8.472 14.005 21.065 25.616a3 3 0 0 1-3.22 4.961c-27.535-11.86-33.63-10.955-34.75-10.518-.011 3.549 11.295 16.288 24.654 27.711a3 3 0 0 1-2.768 5.166c-16.541-4.693-20.868-3.817-21.842-3.403.502 3.178 11.253 14.612 33.961 30.421a3 3 0 0 1-2.716 5.29c-7.139-2.53-10.379-2.994-11.759-3.016 2.226 5.653 20.077 23.072 35.94 38.549 20.14 19.651 45.205 44.108 64.126 67.585a3 3 0 0 1-2.335 4.883z" fill="#232323"/><path d="M146.755 476.711a2.999 2.999 0 0 1-2.669-1.627c-5.287-10.262-10.95-21.606-16.426-32.576-11.996-24.031-23.326-46.729-29.984-56.796a3 3 0 1 1 5.004-3.31c6.86 10.372 18.269 33.228 30.348 57.427 5.468 10.954 11.122 22.28 16.391 32.508a3 3 0 0 1-2.664 4.374zm-54.64-54.789c-.562 0-1.13-.158-1.636-.488-1.353-.883-33.337-21.807-50.613-38.077a3 3 0 0 1 4.114-4.368c16.885 15.902 49.451 37.207 49.778 37.42a3 3 0 0 1-1.643 5.513zm-12.166 19.916a2.981 2.981 0 0 1-1.532-.423c-.301-.179-30.35-18.128-51.636-35.7a3 3 0 0 1 3.819-4.627c20.927 17.275 50.589 34.995 50.886 35.172a3 3 0 0 1-1.537 5.578zm-5.723 19.972a2.991 2.991 0 0 1-1.494-.4c-.185-.107-18.743-10.813-36.192-23.195a3 3 0 0 1 3.473-4.893c17.22 12.219 35.53 22.782 35.713 22.887a3 3 0 0 1-1.5 5.601z" fill="#232323"/><path d="M120.525 545.017C204.364 659.18 300.974 838.532 420.003 845.08c89.074 4.9 149.245-53.022 180.867-91.123s77.784-149.639 87.853-208.915c11.688-68.806 2.731-164.197-70.023-184.563-93.716-26.233-170.993 186.497-198.697 263.913 0 0-134.4-129.338-214.432-190.028z" fill="#d9c6f4"/><path clip-path="url(#a)" d="M463.515 692.273a3 3 0 0 1-2.857-2.09c-8.181-25.66-29.921-54.597-41.703-66.808a3 3 0 0 1 4.318-4.166c8.747 9.066 33.541 39.161 43.102 69.152a3 3 0 0 1-2.86 3.912z" fill="#232323"/><path d="M533.612 838.795c23.543-8.112 49.404 14.454 100.899 4.065 53.585-10.811 119.605-10.228 173.594-30.538 108.004-28.862 177.513-32.069 198.905-9.621-62.026-65.219-134.609-244.527-172.815-372.895-7.632-12.716-33.58-26.705-58.299-46.169-76.295 53.452-132.889 39.771-154.569 4.071-2.744 15.584-32.937 136.644-32.937 136.644z" fill="#fff"/><path d="M607.259 848.654c-15.866 0-28.805-2.822-39.962-5.256-12.942-2.823-23.166-5.053-32.708-1.766a3 3 0 0 1-3.933-3.351l54.778-314.444c.012-.071.027-.141.045-.211.302-1.209 30.199-121.135 32.893-136.438a3 3 0 0 1 5.519-1.037c8.948 14.736 23.24 24.532 41.33 28.33 21.559 4.527 57.962 2.424 108.953-33.301a2.998 2.998 0 0 1 3.577.1c8.716 6.863 17.794 13.185 25.803 18.762 15.623 10.879 27.962 19.473 33.213 28.22.129.216.231.447.303.688 41.052 137.93 113.351 309.884 172.105 371.674l.006.006.002.002a3 3 0 0 1-4.345 4.137c-20.521-21.535-90.056-17.838-195.816 10.412-34.581 12.981-73.768 17.464-111.665 21.799-22.013 2.518-42.805 4.896-62.253 8.82-10.215 2.062-19.441 2.854-27.845 2.854zm-62.23-14.648c7.365 0 15.089 1.685 23.547 3.53 16.517 3.603 37.073 8.086 65.341 2.384 19.699-3.974 40.614-6.366 62.758-8.899 37.586-4.299 76.453-8.745 110.374-21.506.093-.035.187-.064.282-.09 65.167-17.415 145.328-33.143 185.116-18.974-31.719-39.833-62.376-101.721-83.518-149.297-28.736-64.662-56.973-141.223-77.497-210.114-4.737-7.57-17.063-16.154-31.306-26.073-7.545-5.254-16.03-11.163-24.334-17.603-51.806 35.733-89.348 37.706-111.803 32.99-16.955-3.56-31.323-12.39-41.153-25.147-6.507 29.455-30.091 124.082-31.509 129.767l-53.956 309.725c2.519-.484 5.067-.693 7.658-.693z" fill="#232323"/><path d="M532.737 843.787s-47.498 1.101-52.136.001c31.607-100.32 108.059-320.905 109.008-324.327z" fill="#232323"/><path d="M590.814 258.645c10.439 8.276 22.648 11.016 44.443 7.904 2.854 12.399-3.593 75.841-14.383 121.039 2.933 42.562 81.696 57.5 155.022-3.951-32.726-66.139-36.555-132.41-31.523-147.641 27.012-27.908 65.661-70.885 54.159-146.336-7.518-49.31-54.891-70.242-116.844-67.636-25.03 1.053-70.881 35.11-88.626 74.627-20.098 44.759-41.656 122.982-2.248 161.994z" fill="#fff"/><path d="M676.61 427.723c-11.793 0-22.67-1.979-31.902-5.907-16.029-6.819-25.807-19.219-26.827-34.021a2.984 2.984 0 0 1 .075-.903c10.323-43.241 16.235-100.629 14.767-116.979-19.946 2.456-32.77-.194-43.772-8.917a2.842 2.842 0 0 1-.247-.219c-18.201-18.018-25.625-45.361-22.066-81.27 3.467-34.983 16.329-67.698 23.688-84.085 18.396-40.966 64.954-75.29 91.237-76.395 68.982-2.903 112.693 22.679 119.935 70.181 12.042 78.989-30.904 124.007-54.468 148.356-4.191 14.821-.93 79.09 31.555 144.742a3 3 0 0 1-.762 3.63c-23.029 19.299-48.451 32.595-73.519 38.45-9.54 2.229-18.873 3.337-27.694 3.337zm-52.709-39.895c1.033 12.449 9.24 22.546 23.156 28.467 27.78 11.819 77.042 5.948 125.104-33.459-33.216-68.367-35.43-133.275-30.637-147.781a3 3 0 0 1 .693-1.145c13.951-14.414 29.774-31.706 40.984-54.573 13.328-27.187 17.373-56.372 12.364-89.223-6.727-44.124-48.196-67.847-113.751-65.091-24.454 1.029-68.948 34.851-86.016 72.859-7.209 16.054-19.808 48.083-23.19 82.218-3.364 33.943 3.431 59.611 20.199 76.298 10.204 8.028 22.007 10.042 42.026 7.183a3.004 3.004 0 0 1 3.348 2.297c3.035 13.182-3.593 76.942-14.28 121.95z" fill="#232323"/><path d="M683.202 122.541c9.693 10.064 10.671 23.586 5.242 27.614s-17.23-1.351-24.906-13.028c-7.89-12.005-10.31-24.206-5.242-27.615 5.256-3.534 15.289 3.04 24.906 13.029zm-80.299 77.062a13.265 13.265 0 0 0 3.962 4.148 17.889 17.889 0 0 0 5.072 2.382 19.823 19.823 0 0 0 11.202.079 20.14 20.14 0 0 0 5.15-2.468 18.51 18.51 0 0 0 4.157-3.9 15.555 15.555 0 0 0 3.433-10.574 2.318 2.318 0 0 0-4.535-.49l-.044.155a15.419 15.419 0 0 1-3.9 6.556 15.002 15.002 0 0 1-2.969 2.292 14.558 14.558 0 0 1-3.405 1.531 17.043 17.043 0 0 1-7.532.386 14.903 14.903 0 0 1-6.99-2.947l-.139-.114a2.319 2.319 0 0 0-3.462 2.964zm66.192-38.947c-5.004-3.248-17.187-10.761-26.968-21.626a3.689 3.689 0 0 0-5.209-.281l-.029.027c-3.908 3.567-9.201 10.442-1.588 16.99 9.355 8.046 28.157 11.365 33.758 8.103a1.895 1.895 0 0 0 .036-3.213zm-79.338-45.13c5.006 2.292 12.293 4.237 23.283 6.824a3.575 3.575 0 0 1 2.291 4.717c-1.745 4.996-5.68 11.865-15.002 8.13-9.322-3.734-13.87-11.913-13.515-18.381.076-1.391 1.675-1.871 2.943-1.29z" fill="#232323"/><path d="M742.732 171.067s16.877-16.729 41.809-1.31c23.518 14.544 14.021 59.072-28.976 67.788-10.181 2.064-17.598 1.676-28.971-1.829" fill="#fff"/><g fill="#232323"><path d="M744.26 241.799c-5.794 0-11.495-1.042-18.548-3.215a3 3 0 0 1 1.767-5.733c10.725 3.305 17.662 3.748 27.491 1.755 15.465-3.135 34.85-14.215 38.588-35.122 2.048-11.454-2.012-21.866-10.595-27.174-22.514-13.923-37.5.285-38.128.897a3.004 3.004 0 0 1-4.238-.04 2.995 2.995 0 0 1 .023-4.23c.186-.184 18.865-18.202 45.499-1.731 10.722 6.631 15.836 19.404 13.345 33.333-1.6 8.951-6.294 17.659-13.215 24.52-7.739 7.671-18.143 13.006-30.087 15.427-4.277.867-8.109 1.313-11.902 1.313zm-88.921 15.689c-8.503 3.401-15.809 5.416-22.359 6.361 1.097 5.692 2.147 18.808.644 35.191 37.669-10.532 45.379-37.806 40.292-44.058-3.365-4.135-12.34.011-18.577 2.506zm-55.16-179.347c-.15.319-10.802 22.348-10.914 22.608 1.587.166 3.182.234 4.779.192 13.303-.327 23.862-4.913 23.791-10.571-.072-5.08-7.324-9.735-17.656-12.229zm5.294 94.542a2.064 2.064 0 0 0 1.099-3.891c-4.233-2.187-8.81-8.706-8.447-12.03.071-.643.315-1.287 1.622-1.633a26.794 26.794 0 0 0 16.319-11.981 2.065 2.065 0 0 0-3.638-1.95 23.07 23.07 0 0 1-13.738 9.941 5.832 5.832 0 0 0-4.668 5.172c-.599 5.422 5.361 13.408 10.653 16.144.249.132.52.208.798.228z"/><path d="M600.179 81.232s22.197 7.597 49.922-9.644c7.779 32.676 44.659 49.059 67.339 82.989 9.4 14.064 15.356 21.908 18.092 29.874 20.784-25.748 57.792-25.403 61.553 6.643 18.69-8.629 38.706-54.003 31.958-89.795C811.215 6.748 708.599 5.523 660.167 24.421c-31.216 11.857-54.001 42.95-59.988 56.811z"/><path d="M747.558 204.016a3 3 0 0 1-2.539-4.595c7.066-11.261 23.647-18.481 39.164-11.07a3 3 0 0 1-2.586 5.414c-12.496-5.968-25.827-.189-31.495 8.845a2.999 2.999 0 0 1-2.544 1.406z"/></g><path d="M781.56 347.571s97.552 38.107 130.954 76.43c99.526 114.189 95.966 406.478 122.314 610.593 15.939 123.473 84.38 211.927 84.38 211.927s-18.599-30.408-110.239-27.453c-40.379 1.301-127.002 24.631-196.541 33.228-117.091 14.476-227.187-11.547-227.187-11.547s154.77-816.024 158.33-834.534c18.668-14.534 25.542-48.555 25.542-48.555z" fill="#d9c6f4"/><path d="M808.512 1033.503c-15.582 33.516-35.472 87.28-50.404 112.756-8.089 13.559-3.202 19.639 8.201 14.193a67.481 67.481 0 0 0 16.201-10.97c13.718 22.332 27.8 20.378 27.8 20.378 10.839 6.94 26.792 3.482 26.792 3.482a34.536 34.536 0 0 0 30.489 1.537c20.345 4.559 39.657-24.566 41.143-43.467 1.017-12.621-2.831-21.717-6.356-26.581.825-7.592 4.134-21.671 13.357-37.81" fill="#fff"/><path d="M853.933 1180.678c-5.976 0-11.94-1.407-17.318-4.195-3.909.667-17.037 2.304-27.086-3.586h-.071c-3.86 0-15.813-1.535-27.592-18.884a70.453 70.453 0 0 1-14.253 9.139c-8.738 4.173-12.854 1.709-14.532-.13-1.911-2.097-4.135-7.262 2.45-18.301 9.189-15.678 20.404-42.498 31.249-68.436 6.743-16.126 13.112-31.358 19.011-44.047a3 3 0 1 1 5.441 2.529c-5.85 12.583-12.197 27.762-18.916 43.833-10.922 26.121-22.215 53.13-31.62 69.176-4.349 7.29-3.77 10.558-3.181 11.205.599.657 3.091.87 7.501-1.236a64.404 64.404 0 0 0 15.469-10.478 3.004 3.004 0 0 1 4.581.643c12.357 20.117 24.365 19.029 24.871 18.972a3.112 3.112 0 0 1 1.991.45c9.684 6.2 24.392 3.109 24.539 3.076a3.007 3.007 0 0 1 2.095.311c8.5 4.734 18.907 5.259 27.84 1.403a2.997 2.997 0 0 1 1.845-.173c5.503 1.233 11.244-.323 17.07-4.624 11.685-8.626 19.562-25.155 20.427-36.151 1.085-13.477-3.691-21.683-5.795-24.585a2.997 2.997 0 0 1-.553-2.085c.603-5.547 3.149-20.45 13.735-38.974a3 3 0 1 1 5.209 2.977c-9.53 16.675-12.158 30.389-12.847 35.555 2.708 4.106 7.373 13.417 6.231 27.589-1.125 14.304-10.946 31.718-22.844 40.502-6.864 5.067-14.096 7.078-20.982 5.845a37.547 37.547 0 0 1-13.965 2.68z" fill="#232323"/><path d="M782.512 1152.481a3 3 0 0 1-2.592-1.484c-14.446-24.667-5.822-45.79-2.834-51.676a3 3 0 0 1 5.351 2.716c-2.64 5.201-10.249 23.884 2.661 45.928a3 3 0 0 1-2.586 4.516zm27.798 20.377a2.99 2.99 0 0 1-2.199-.959c-17.615-18.979-14.736-36.622-14.604-37.364a3 3 0 0 1 5.911 1.032c-.111.669-2.358 15.605 13.091 32.249a3 3 0 0 1-2.199 5.042zm26.79 3.482a2.99 2.99 0 0 1-1.873-.658c-20.219-16.181-16.431-38.85-16.26-39.808a3 3 0 0 1 5.907 1.05c-.146.844-3.252 20.185 14.101 34.073a3.001 3.001 0 0 1-1.875 5.343zm30.493 1.537c-.238 0-.48-.028-.722-.088-23.931-5.911-25.026-30.136-22.262-42.121a3.002 3.002 0 0 1 5.848 1.346c-.275 1.209-6.29 28.987 17.853 34.949a3.001 3.001 0 0 1-.717 5.914zm14.49-22.685a3 3 0 0 1-.772-5.9c7.878-2.105 16.83-24.219 18.073-44.646.101-1.654 1.53-2.9 3.177-2.812a3 3 0 0 1 2.812 3.177c-1.142 18.778-9.601 46.629-22.513 50.079a3.033 3.033 0 0 1-.777.102z" fill="#232323"/><path d="m808.512 1033.503 107.223 33.516c47.712-75.193 180.326-174.869 227.553-263.33 38.53-72.169 14.51-143.722-4.885-189.045-47.227-110.359-149.546-200.781-220.776-247.813-41.668-27.513-115.588-46.608-146.577-12.22-5.748 6.379-16.821 45.955-1.316 89.792 28.021 79.226 170.094 306.234 170.005 306.33-56.337 95.901-86.495 174.159-131.227 282.77z" fill="#d9c6f4"/><path d="M808.51 1036.504a3 3 0 0 1-2.772-4.144c4.526-10.988 8.902-21.666 13.172-32.082 37.486-91.458 67.14-163.81 117.333-249.514l-1.469-2.377c-42.667-69.029-144.437-236.736-167.869-302.984-8.61-24.343-8.814-46.189-7.47-60.229 1.631-17.033 6.009-28.824 9.386-32.571a3.001 3.001 0 0 1 4.457 4.017c-5.254 5.83-15.749 44.28-.716 86.783 23.238 65.7 124.75 232.965 167.316 301.83l1.803 2.919c.753 1.222 1.678 2.724.539 4.282-50.466 85.938-80.163 158.394-117.758 250.12-4.271 10.42-8.649 21.101-13.176 32.092a3.004 3.004 0 0 1-2.776 1.858z" fill="#232323"/><path clip-path="url(#b)" d="M915.732 1070.019a3.001 3.001 0 0 1-2.53-4.608c17.905-28.217 49.688-59.266 83.338-92.137 9.999-9.767 20.337-19.867 30.403-29.991a3 3 0 0 1 4.255 4.231c-10.097 10.155-20.452 20.271-30.466 30.053-33.393 32.621-64.934 63.432-82.464 91.06a3.001 3.001 0 0 1-2.536 1.392z" fill="#232323"/><path d="M939.736 753.733a3 3 0 0 1-2.573-4.539c12.009-20.115 38.742-44.764 58.376-53.826a3.001 3.001 0 0 1 2.514 5.448c-18.398 8.491-44.444 32.535-55.739 51.454a2.997 2.997 0 0 1-2.578 1.463z" fill="#232323"/><path d="M735.532 184.451S681.449 95.314 598.098 81.025c0 0 7.043-14.938 23.816-30.201 91.79 31.727 126.805 121.864 126.805 121.864z" fill="#d9c6f4"/><path d="M825.077 319.52c17.781-20.779-18.671-56.74-9.557-75.386 18.984-38.838 51.948-113.949 23.037-176.06C811.215 9.331 749.942-.672 708.851 2.338c-44.74 3.277-86.084 29.378-103.138 66.487 0 0 23.141-3.536 42.882 8.471 21.635 13.159 66.686 62.833 90.653 87.816 0 0-13.728 49.125-48.331 71.936-18.768 12.372-33.414 20.923-44.125 26.279-7.858 3.929-14.559 6.32-21.117 7.204 2.211 21.693.44 49.176-3.423 63.719-12.314 1.853-25.171 6.805-24.81 17.109-8.649.713-22.735 6.37-21.024 18.859 2.12 15.474 28.185 104.916 67.289 108.381 38.399 3.402 183.589-98.56 213.244-137.859-7.85-9.29-17.578-17.135-31.874-21.22z" fill="#00676c"/><path clip-path="url(#c)" d="M647 453.468c-.479 0-.964-.115-1.415-.357-20.605-11.052-33.532-33.508-40.749-50.399-8.722-20.417-12.802-41.385-12.975-53.108a3 3 0 0 1 2.955-3.044 2.99 2.99 0 0 1 3.044 2.955c.312 21.118 15.305 79.399 50.56 98.309a3 3 0 0 1-1.42 5.644zm144.488-153.117a3 3 0 0 1-1.993-5.243c9.245-8.209 11.871-16.064 15.196-26.008 2.419-7.236 5.161-15.437 10.894-25.441a3 3 0 0 1 5.206 2.982c-5.437 9.488-8.079 17.39-10.41 24.361-3.466 10.366-6.459 19.318-16.902 28.591a2.98 2.98 0 0 1-1.991.758zm-91.891 107.274a3 3 0 0 1-.333-5.981c45.353-5.125 85.614-44.206 112.256-70.066 6.036-5.859 11.249-10.919 15.75-14.843a3.001 3.001 0 0 1 3.943 4.523c-4.38 3.819-9.54 8.827-15.513 14.625-27.227 26.429-68.373 66.368-115.761 71.723a3.054 3.054 0 0 1-.342.019zm36.399-238.285a3 3 0 0 1-2.815-4.038c9.596-26.054 19.788-56.625 22.613-85.823 2.909-30.069-2.44-54.53-16.353-74.781a3 3 0 1 1 4.945-3.397c14.746 21.462 20.43 47.224 17.38 78.756-2.89 29.876-13.226 60.906-22.954 87.319a3.002 3.002 0 0 1-2.816 1.964zm-78.531 165.889a20.13 20.13 0 0 1-3.024-.214c-14.4-2.196-31.768-14.862-33.321-43.332a3 3 0 0 1 5.991-.327c1.357 24.876 16.058 35.871 28.235 37.727 6.813 1.039 21.212-2.912 39.367-17.466 15.323-12.283 38.596-36.574 62.456-82.538a3.001 3.001 0 0 1 5.326 2.764c-10.368 19.973-21.513 37.627-33.126 52.473-10.038 12.832-20.435 23.592-30.902 31.982-17.501 14.03-32.087 18.931-41.002 18.931zm-.624 37.25c-10.167 0-19.171-3.154-26.305-9.267-8.252-7.071-13.427-17.888-13.843-28.937a3 3 0 1 1 5.996-.226c.354 9.406 4.748 18.605 11.752 24.607 7.219 6.186 16.823 8.782 27.772 7.503a3 3 0 0 1 .695 5.959 52.082 52.082 0 0 1-6.067.361z" fill="#232323"/><path d="M534.813 843.087c-2.092-2.354.613-7.182 1.867-10.818 1.112-3.222 2.28-6.224 3.238-12.063 14.475-2.393 15.696 14.695 15.696 14.695s-11.001-1.541-15.114.864c-1.434.838-2.093 3.74-1.072 5.179 2.617 3.688-4.615 2.143-4.615 2.143z" fill="#fff"/></svg></g><g transform="translate(805.7142857142857 767.1428571428571) rotate(-27.50560714355196 96.96428571428572 138.21428571428567) scale(1.0343794980268688 1.0368702486827457)"><svg width="187.483" height="266.599" viewBox="0 0 187.483 266.599"><path d="M98.012 258.735 22.083 236.34c-11.138-3.285-17.504-14.977-14.219-26.115L63.355 22.083C66.64 10.945 78.332 4.579 89.47 7.864l75.929 22.395c11.138 3.285 17.504 14.977 14.219 26.115l-55.491 188.142c-3.285 11.138-14.977 17.504-26.115 14.219z" fill="#fff"/><g fill="#232323"><path d="M103.947 266.597a27.93 27.93 0 0 1-7.915-1.148l-75.929-22.395c-7.18-2.118-13.105-6.905-16.686-13.479-3.579-6.575-4.385-14.15-2.267-21.33L56.642 20.103c2.117-7.18 6.904-13.106 13.479-16.686C76.695-.162 84.27-.968 91.45 1.15l75.93 22.395c7.18 2.118 13.105 6.905 16.686 13.479 3.579 6.575 4.385 14.15 2.267 21.33l-55.491 188.142c-3.595 12.186-14.79 20.101-26.895 20.101zm-3.955-14.576c7.41 2.188 15.232-2.067 17.421-9.485l55.491-188.142a13.932 13.932 0 0 0-1.135-10.675 13.934 13.934 0 0 0-8.351-6.746L87.49 14.578a13.937 13.937 0 0 0-10.675 1.135 13.93 13.93 0 0 0-6.745 8.35L14.578 212.206a13.931 13.931 0 0 0 1.135 10.675 13.934 13.934 0 0 0 8.351 6.746z"/><path d="M146.279 37.191c-.562 0-1.134-.08-1.7-.247l-43.202-12.742a6 6 0 1 1 3.394-11.51l43.202 12.742a6 6 0 0 1-1.694 11.757z"/></g></svg></g><g transform="translate(785.3571428571429 432.85714285714283) rotate(0.0 193.3928571428571 151.60714285714286) scale(1.0734803760254066 1.0749230208248928)"><svg width="360.31" height="282.08" viewBox="0 0 360.31 282.08"><path d="M341.38 227.31h-220.7l-30.55 51.77-27-51.77h-44.2A16 16 0 0 1 3 211.37V18.93A16 16 0 0 1 18.93 3h322.45a16 16 0 0 1 15.93 15.93v192.44a16 16 0 0 1-15.93 15.94z" fill="#fff"/><g fill="#232323"><path d="M90.13 282.08h-.08a3 3 0 0 1-2.58-1.61l-26.15-50.16H18.93A19 19 0 0 1 0 211.37V18.94A19 19 0 0 1 18.93 0h322.45a19 19 0 0 1 18.94 18.94v192.43a19 19 0 0 1-18.94 18.94h-219L92.71 280.6a3 3 0 0 1-2.58 1.48zM18.93 6A13 13 0 0 0 6 18.94v192.43a13 13 0 0 0 12.93 12.94h44.21a3 3 0 0 1 2.66 1.61l24.49 47 27.8-47.12a3 3 0 0 1 2.59-1.47h220.7a13 13 0 0 0 12.94-12.94V18.94A13 13 0 0 0 341.38 6z"/><circle cx="101.04" cy="115.15" r="22.33"/><circle cx="180.16" cy="115.15" r="22.33"/><circle cx="259.28" cy="115.15" r="22.33"/></g></svg></g><g transform="translate(936.4285714285714 859.2857142857142) rotate(0.0 60.53571428571428 63.21428571428572) scale(1.113126486631318 1.113260759633794)"><svg width="108.767" height="113.566" viewBox="0 0 108.767 113.566"><g><path style="fill:#fff" d="M55.226 110.566C37.276 77.832 27.454 52.658 8.651 20.912c0 0-40.852-63.074 97.116 47.497"/><path style="fill:#232323" d="M55.229 113.566a3 3 0 0 1-2.633-1.558c-7.832-14.281-14.149-27.185-20.259-39.664C24.274 55.878 16.658 40.322 6.1 22.492 3.076 17.812-3.28 6.541 2.075 1.701 6.227-2.053 14.664.297 30.282 9.556c17.454 10.347 43.482 29.36 77.361 56.512a3 3 0 1 1-3.752 4.682C70.755 44.194 45.229 25.502 28.023 15.195 9.432 4.057 6.122 6.135 6.092 6.158c-.756 1.178 1.323 7.314 5.079 13.125l.062.101c10.695 18.057 18.368 33.73 26.493 50.323 6.08 12.417 12.367 25.258 20.131 39.417a3 3 0 0 1-2.628 4.442z"/></g></svg></g></svg>