<svg width="27" height="27" viewBox="0 0 27 27" fill="none" xmlns="http://www.w3.org/2000/svg">
<path d="M24.5359 1.4251C24.2088 0.762598 23.6106 0.291113 22.8561 0.0963972C21.9619 -0.134728 20.9801 0.0544464 20.1712 0.613527C18.6449 1.66546 17.9547 3.26936 18.5378 4.44161C19.8599 6.8832 20.5601 9.36121 20.5055 11.4231C20.477 12.5624 20.2435 13.6046 19.8206 14.5048C19.32 15.4897 18.6243 16.4184 17.7607 17.2596C14.3347 20.4555 8.57877 22.0755 3.1001 21.4029C2.26319 21.2779 0.70837 21.0636 0.12185 23.1773C-0.152546 24.1517 0.0878142 24.816 0.3382 25.201C0.731588 25.8073 1.42549 26.1983 2.33284 26.3331C3.74018 26.5822 5.17944 26.7072 6.64138 26.7072C8.50991 26.7072 10.4151 26.5038 12.3464 26.0964C16.0138 25.2535 19.1438 23.7514 21.6579 21.6254C23.1062 20.3608 24.2935 18.9186 25.1895 17.3337C26.0871 15.6897 26.6377 13.7626 26.7854 11.7569C27.0026 8.46916 26.2686 5.09356 24.5359 1.4251Z" fill="#278ED5"/>
</svg>
