<svg xmlns="http://www.w3.org/2000/svg" viewBox="0 0 2999 2999" width="2999" height="2999"><g transform="translate(632.3076923076923 233.07692307692307) rotate(0.0 853.8461538461538 1263.4615384615383) scale(2.3101585580448147 2.309691931391814)"><svg width="739.21" height="1094.052" viewBox="0 0 739.21 1094.052"><path d="M127.707 117.907 534.427 7.495l44.43 163.667c30.47 112.236-35.916 228.096-148.154 258.565-112.237 30.47-228.096-35.916-258.565-148.154z" fill="#95FF80"/><path d="M375.148 444.686c-37.573 0-74.662-9.791-108.143-28.975-50.574-28.979-86.837-75.918-102.107-132.171l-44.429-163.667a7.5 7.5 0 0 1 5.273-9.203L532.463.262a7.521 7.521 0 0 1 5.693.73 7.504 7.504 0 0 1 3.51 4.543l44.429 163.667c15.271 56.253 7.721 115.085-21.259 165.659-28.979 50.574-75.918 86.837-132.171 102.107-19.015 5.161-38.332 7.717-57.518 7.717zM136.911 123.182l42.464 156.429c24.534 90.38 106.716 149.995 196.174 150.003 17.581 0 35.426-2.299 53.188-7.121 108.142-29.356 172.239-141.219 142.883-249.36L529.156 16.704z" fill="#1E284C"/><circle cx="482.919" cy="622.093" fill="#95FF80" r="48.094"/><path d="M482.831 677.711c-9.571 0-19.021-2.495-27.551-7.382-12.885-7.383-22.123-19.341-26.014-33.672-8.03-29.586 9.505-60.188 39.089-68.218 14.329-3.889 29.319-1.968 42.204 5.416 12.885 7.383 22.122 19.341 26.013 33.672 8.031 29.584-9.504 60.187-39.088 68.218a55.901 55.901 0 0 1-14.653 1.966zm.154-96.23c-3.57 0-7.162.475-10.7 1.436-21.602 5.863-34.406 28.209-28.542 49.812 2.841 10.464 9.587 19.196 18.995 24.587 9.407 5.392 20.354 6.796 30.816 3.954 21.602-5.864 34.405-28.21 28.541-49.812-2.84-10.465-9.586-19.196-18.994-24.587-6.227-3.568-13.128-5.39-20.116-5.39z" fill="#1E284C"/><path d="m401.075 435.556 58.138-15.783L502.17 578.01l-58.137 15.783z" fill="#95FF80"/><path d="M444.027 601.297a7.5 7.5 0 0 1-7.239-5.535l-42.955-158.237a7.5 7.5 0 0 1 5.273-9.203l58.138-15.782a7.515 7.515 0 0 1 5.693.73 7.504 7.504 0 0 1 3.51 4.543l42.955 158.237a7.5 7.5 0 0 1-5.273 9.203l-58.138 15.782a7.516 7.516 0 0 1-1.965.262zm-33.752-160.464L449.3 584.594l43.661-11.853-39.025-143.761z" fill="#1E284C"/><path d="M643.585 689.795c-9.441-32.824-61.193-48.319-121.774-39.407l-58.138 15.782c-56.772 22.945-93.584 62.481-85.132 95.574z" fill="#95FF80"/><path d="M378.542 769.245a7.505 7.505 0 0 1-7.266-5.645c-9.293-36.384 27.547-79.309 89.588-104.383.276-.112.559-.207.846-.285l58.139-15.782c.287-.078.579-.139.873-.182 66.209-9.741 119.692 8.666 130.073 44.754a7.499 7.499 0 0 1-5.243 9.312l-265.044 71.949a7.516 7.516 0 0 1-1.965.262zm87.531-95.954c-49.062 19.936-81.449 51.966-81.239 78.975l248.53-67.467c-13.476-23.406-57.611-34.665-110.021-27.054z" fill="#1E284C"/><path d="m330.784 774.718 360.575-97.885 40.357 148.662-360.575 97.885z" fill="#1E284C"/><path d="M371.13 930.886a7.503 7.503 0 0 1-7.233-5.537l-40.356-148.662a7.502 7.502 0 0 1 5.273-9.203l360.576-97.882a7.499 7.499 0 0 1 9.203 5.273l40.356 148.662a7.502 7.502 0 0 1-5.273 9.203L373.1 930.622a7.494 7.494 0 0 1-1.97.264zm-31.148-150.891 36.427 134.186 346.1-93.952-36.427-134.186z" fill="#1E284C"/><path d="m401.597 797.884 240.384-65.257 18.922 69.701-240.385 65.257z" fill="#FFF"/><g fill="#1E284C"><path d="M420.512 875.09a7.5 7.5 0 0 1-7.239-5.535l-18.921-69.701a7.5 7.5 0 0 1 5.273-9.203l240.385-65.255a7.498 7.498 0 0 1 9.203 5.273l18.922 69.701a7.502 7.502 0 0 1-5.273 9.203l-240.386 65.255a7.516 7.516 0 0 1-1.965.262zm-9.718-71.928 14.991 55.225 225.909-61.325-14.992-55.225zM207.463 366.056c-11.163 0-43.371-1.049-78.607-11.865-57.618-17.686-95.178-53.205-108.619-102.72-5.602-20.636-3.496-43.259 5.777-62.068 9.78-19.839 26.33-33.795 46.601-39.298 19.029-5.167 37.943-3.146 53.261 5.685 15.235 8.785 26.449 24.026 31.577 42.918 4.141 15.253 2.821 29.763-3.814 41.962-6.385 11.737-17.27 20.202-30.648 23.834-15.529 4.219-26.892.251-33.686-3.821-8.327-4.987-14.479-12.918-16.88-21.758-4.424-16.297 4.371-32.921 19.604-37.058 7.377-2.003 15.097-1.014 21.733 2.79 6.634 3.802 11.392 9.959 13.395 17.338a7.5 7.5 0 0 1-14.476 3.93 13.538 13.538 0 0 0-6.377-8.254 13.538 13.538 0 0 0-10.345-1.327c-7.129 1.936-11.276 10.477-9.058 18.651 1.373 5.058 5.152 9.85 10.111 12.819 6.162 3.69 13.784 4.457 22.048 2.213 9.391-2.549 16.992-8.418 21.401-16.525 4.754-8.739 5.624-19.412 2.515-30.864-4.142-15.258-12.646-26.964-24.593-33.853-12.004-6.922-26.469-8.376-41.839-4.203-16.059 4.358-29.226 15.529-37.076 31.454-7.68 15.576-9.412 34.35-4.755 51.506 12.164 44.812 45.19 75.829 98.162 92.192 40.401 12.48 77.756 11.285 78.131 11.273a7.495 7.495 0 0 1 7.77 7.219 7.499 7.499 0 0 1-7.213 7.771c-.283.011-1.71.059-4.1.059zM583.991 264.83a7.498 7.498 0 0 1-6.614-3.954 7.499 7.499 0 0 1 3.058-10.154c.419-.227 33.2-18.081 61.704-49.233 37.427-40.902 50.235-84.362 38.07-129.174-4.657-17.156-15.646-32.477-30.146-42.031-14.826-9.771-31.834-12.749-47.893-8.389-15.368 4.172-27.115 12.741-33.971 24.782-6.824 11.984-8.242 26.384-4.1 41.642 6.089 22.428 24.429 34.27 44.597 28.792 19.052-5.172 22.467-20.674 20.144-29.23-1.092-4.025-3.656-7.571-7.035-9.73-3.227-2.061-6.853-2.695-10.21-1.781a13.54 13.54 0 0 0-8.255 6.377 13.538 13.538 0 0 0-1.326 10.345 7.5 7.5 0 0 1-14.476 3.93c-2.003-7.38-1.013-15.098 2.788-21.732 3.803-6.636 9.961-11.393 17.34-13.396 7.493-2.032 15.383-.748 22.216 3.618 6.577 4.202 11.349 10.751 13.436 18.44 4.885 17.994-5.259 40.732-30.69 47.637-28.236 7.663-54.733-8.88-63.003-39.339-5.128-18.892-3.16-37.712 5.541-52.994 8.748-15.363 24.046-26.67 43.076-31.836 20.271-5.501 41.604-1.832 60.075 10.34 17.512 11.539 30.769 29.991 36.37 50.627 13.441 49.515-1.002 99.151-41.769 143.544-30.269 32.961-63.965 51.245-65.385 52.007a7.47 7.47 0 0 1-3.541.895z"/></g><path d="M470.368 460.882c-30.192 2.725-46.553 8.531-92.648 15.625-198.689 30.578-303.955-82.746-303.955-82.746s7.02 68.358 41.631 108.705c0 0-48.358 29.783-107.896 20.587 0 0 139.419 168.477 482.131 8.788l-19.262-70.959z" fill="#FFF"/><path d="M219.986 608.102c-36.187 0-70.333-4.529-101.995-13.56-79.023-22.537-114.785-64.916-116.27-66.709a7.501 7.501 0 0 1 6.923-12.193c42.72 6.596 79.888-8.125 95.278-15.58-30.755-41.859-37.339-102.809-37.619-105.532a7.501 7.501 0 0 1 12.956-5.871c.252.271 26.364 27.907 75.874 51.495 45.613 21.731 121.058 44.395 221.446 28.942 20.183-3.106 34.473-5.935 47.081-8.43 16.074-3.182 28.771-5.694 46.033-7.252a7.5 7.5 0 0 1 7.912 5.505l19.263 70.959a7.501 7.501 0 0 1-4.07 8.763c-78.917 36.772-153.7 59.197-222.271 66.653-17.234 1.874-34.102 2.81-50.541 2.81zm-191.85-75.794c16.739 13.865 47.924 34.864 95.072 48.122 68.764 19.336 186.361 25.677 357.523-52.739l-15.938-58.71c-13.503 1.506-24.619 3.706-38.222 6.398-12.755 2.524-27.212 5.386-47.712 8.541-46.108 7.096-91.089 7.082-133.693-.045-34.146-5.711-66.84-15.977-97.175-30.511-28.945-13.869-50.074-28.866-63.285-39.618 4.742 22.701 15.191 59.135 36.381 83.836a7.495 7.495 0 0 1-1.76 11.269c-1.818 1.121-40.169 24.353-91.192 23.457z" fill="#1E284C"/><path d="M427.859 529.466s-35.246-9.766-83.148 3.233-137.191 69.774-144.766 160.547c-9.777 117.158 114.641 148.35 136.586 208.061 17.931 48.788-21.917 86.087-47.954 98.409 0 0 56.293 15.429 107.583-4.587 0 0 19.181 43.367 12.886 91.403 56.334 2.002 183.099-145.172 60.921-246.917-93.636-77.977-200.034-170.153-32.345-274.172z" fill="#FFF"/><path d="M410.114 1094.05c-.45 0-.892-.008-1.334-.023a7.502 7.502 0 0 1-7.17-8.469c4.553-34.743-5.029-67.399-9.812-80.891-50.859 16.803-102.913 2.909-105.203 2.282a7.5 7.5 0 0 1-1.225-14.013c18.207-8.617 61.627-41.412 44.121-89.043-7.319-19.917-28.675-37.646-51.283-56.415-41.108-34.127-92.268-76.599-85.736-154.857 4.406-52.809 34.86-91.311 59.631-114.311 31.698-29.432 67.608-46.599 90.645-52.85 49.318-13.383 85.596-3.644 87.115-3.223a7.497 7.497 0 0 1 5.235 5.263l9.764 35.979a7.5 7.5 0 0 1-3.285 8.337c-54.368 33.726-81.991 67.26-84.449 102.521-4.056 58.171 63.422 114.363 117.641 159.515 68.991 57.454 57.148 123.99 43.948 158.538-22.467 58.802-75.388 101.661-108.602 101.661zm-13.955-106.424a7.503 7.503 0 0 1 6.861 4.469c.767 1.732 17.62 40.489 14.395 86.133 27.672-5.989 69.237-43.947 87.289-91.192 11.771-30.807 22.286-90.175-39.536-141.657-56.847-47.341-127.594-106.257-123.005-172.085 2.74-39.313 31.136-75.737 86.769-111.243l-7.119-26.231c-10.275-1.938-39.067-5.67-75.138 4.118-42.199 11.452-131.763 64.146-139.256 153.932-5.88 70.465 39.942 108.506 80.37 142.068 24.206 20.096 47.069 39.076 55.782 62.782 8.712 23.704 5.865 47.751-8.232 69.54-6.686 10.334-15.9 19.987-26.192 27.687 20.087 2.71 53.377 4.258 84.288-7.804a7.463 7.463 0 0 1 2.725-.516z" fill="#1E284C"/><path d="m478.042 489.151-18.832-69.373-58.138 15.782 33.503 123.419c31.381-23.738 48.888-49.847 43.466-69.828z" fill="#95FF80"/><path d="M434.575 566.479a7.502 7.502 0 0 1-7.237-5.535l-33.504-123.419a7.502 7.502 0 0 1 5.273-9.203l58.139-15.781c3.992-1.086 8.117 1.275 9.203 5.273l18.831 69.372c6.13 22.591-10.702 50.938-46.18 77.774a7.497 7.497 0 0 1-4.525 1.519zm-24.3-125.646 28.544 105.147c23.726-20.127 35.845-40.631 31.984-54.865l-16.866-62.134z" fill="#1E284C"/><path d="M478.042 489.151c7.048 25.971-24.615 62.302-75.177 90.312-20.083 11.125.572 52.197 31.948 40.121 104.255-40.122 112.575-98.015 105.203-122.86-6.626-22.331-28.358-39.205-69.647-35.841l7.674 28.269z" fill="#FFF"/><path d="M423.576 629.273c-15.034 0-27.292-9.593-32.9-21.61-6.554-14.046-3.036-28.34 8.556-34.761 47.993-26.588 77.425-60.22 71.572-81.787l-7.674-28.268c-.584-2.151-.181-4.451 1.101-6.275s3.307-2.983 5.528-3.165c57.488-4.666 73.311 27.241 77.447 41.183 2.051 6.912 7.278 31.799-11.58 61.824-17.811 28.359-50.823 51.968-98.119 70.17-4.817 1.854-9.496 2.688-13.931 2.689zm56.482-161.322 5.222 19.235c7.91 29.147-23.014 67.943-78.78 98.837-5.495 3.044-4.636 10.143-2.231 15.296 4.188 8.976 14.687 16.335 27.852 11.265 95.258-36.659 108.122-88.735 100.705-113.727-5.97-20.121-24.335-30.907-52.147-30.907h-.619z" fill="#1E284C"/></svg></g><g transform="translate(1497.6923076923076 251.53846153846152) rotate(0.0 186.9230769230769 353.07692307692304) scale(2.2972271617333004 2.3018624273615718)"><svg width="162.738" height="306.775" viewBox="0 0 162.738 306.775"><circle cx="81.369" cy="225.406" fill="#FFF" r="73.869"/><path d="M81.369 306.775C36.502 306.775 0 270.273 0 225.406s36.502-81.369 81.368-81.369 81.369 36.502 81.369 81.369-36.502 81.369-81.368 81.369zm0-147.738c-36.596 0-66.368 29.773-66.368 66.369s29.773 66.369 66.369 66.369 66.368-29.773 66.368-66.369-29.773-66.369-66.369-66.369z" fill="#1E284C"/><path d="M127.508 167.716H35.23l14.914-27.497h62.45z" fill="#FFF"/><path d="M127.508 175.216H35.23a7.497 7.497 0 0 1-6.444-3.664 7.497 7.497 0 0 1-.148-7.412l14.914-27.497a7.501 7.501 0 0 1 6.593-3.924h62.45a7.501 7.501 0 0 1 6.593 3.924l14.914 27.497a7.5 7.5 0 0 1-6.592 11.076zm-79.679-15h67.079l-6.778-12.497H54.608l-6.778 12.497z" fill="#1E284C"/><path d="M50.143 30.565v109.654h62.451V12.503c0-3.294-3.131-5.688-6.31-4.825L57.523 20.915a10 10 0 0 0-7.38 9.651z" fill="#DEA2FF"/><g fill="#1E284C"><path d="M112.594 147.719h-62.45a7.499 7.499 0 0 1-7.5-7.5V30.565c0-7.88 5.311-14.825 12.915-16.89L104.32.439a12.42 12.42 0 0 1 10.867 2.134 12.41 12.41 0 0 1 4.907 9.93V140.22c0 4.143-3.357 7.5-7.5 7.5zm-54.95-15h47.45V15.772l-45.605 12.38a2.505 2.505 0 0 0-1.845 2.413zm44.384 134.117H68.765c-4.143 0-7.5-3.357-7.5-7.5s3.357-7.5 7.5-7.5h33.263c4.143 0 7.5 3.357 7.5 7.5s-3.357 7.5-7.5 7.5z"/><path d="M87.053 266.836a7.499 7.499 0 0 1-7.5-7.5v-42.395l-12.357 10.521a7.501 7.501 0 0 1-9.724-11.422l24.72-21.047a7.501 7.501 0 0 1 12.362 5.711v58.631c0 4.143-3.357 7.5-7.5 7.5z"/></g></svg></g><g transform="translate(323.07692307692304 1052.3076923076922) rotate(0.0 129.2307692307692 129.23076923076928) scale(3.0648461237449856 3.0648461237449878)"><svg width="84.331" height="84.331" viewBox="0 0 84.331 84.331"><circle cx="42.165" cy="42.165" fill="#95FF80" r="42.165"/></svg></g><g transform="translate(2284.6153846153843 433.8461538461538) rotate(0.0 246.9230769230769 553.8461538461538) scale(2.3019267341898506 2.30592923263319)"><svg width="214.536" height="480.367" viewBox="0 0 214.536 480.367"><path d="M20.177 480.368a7.502 7.502 0 0 1-3.635-14.066c.591-.331 39.422-22.521 67.596-79.332 26.2-52.833 48.314-147.302 4.874-297.321a7.5 7.5 0 0 1 14.408-4.172c19.806 68.398 28.078 131.559 24.587 187.726-2.813 45.258-13.225 86.122-30.943 121.459-30.429 60.684-71.542 83.82-73.276 84.775a7.473 7.473 0 0 1-3.61.931z" fill="#1E284C"/><path d="M11.799 309.876s-27.898 92.625 58.436 114.634c0 0 25.049-69.639-58.436-114.634z" fill="#95FF80"/><path d="M70.238 432.012a7.496 7.496 0 0 1-1.855-.233c-26.306-6.706-45.391-20.278-56.728-40.341-20.8-36.813-7.608-81.826-7.037-83.725a7.505 7.505 0 0 1 4.316-4.769 7.513 7.513 0 0 1 6.424.329c45.752 24.659 60.244 56.819 64.346 79.456 4.48 24.731-2.128 43.531-2.411 44.319a7.503 7.503 0 0 1-7.055 4.963zM16.91 321.481c-2.419 13.909-4.641 40.623 7.85 62.656 8.213 14.488 21.684 24.893 40.104 30.997 1.257-6.678 2.377-17.677-.049-30.43-4.813-25.299-20.912-46.532-47.904-63.224z" fill="#1E284C"/><path d="M167.907 455.306s-79.11 37.82-97.672-30.796c60.817-30.905 97.672 30.796 97.672 30.796z" fill="#95FF80"/><path d="M122.823 473.204c-9.316 0-18.95-1.501-27.896-5.607-15.764-7.235-26.507-21.072-31.933-41.127a7.503 7.503 0 0 1 3.843-8.646c34.698-17.635 62.271-7.387 79.29 4.314 17.959 12.349 27.809 28.635 28.219 29.322a7.502 7.502 0 0 1-3.203 10.613c-1.281.612-23.673 11.131-48.32 11.131zm-43.45-44.658c4.516 12.302 11.834 20.839 21.813 25.419 18.661 8.563 42.622 2.33 55.098-2.074-10.813-13.522-37.905-39.535-76.91-23.345z" fill="#1E284C"/><path d="M104.54 357.194s38.373-54.584 102.496-13.071c-50.224 62.641-102.496 13.071-102.496 13.071z" fill="#95FF80"/><path d="M150.909 383.309c-29.377 0-50.598-19.791-51.529-20.674a7.502 7.502 0 0 1-.975-9.756c.438-.622 10.938-15.352 30.09-24.55 17.797-8.546 46.576-13.836 82.618 9.497a7.503 7.503 0 0 1 1.775 10.988c-17.121 21.354-36.486 32.909-57.558 34.345-1.491.102-2.969.15-4.422.15zm-35.597-27.183c7.573 5.271 22.071 13.265 39.137 12.058 14.499-1.029 28.289-8.488 41.08-22.2-21.498-11.722-41.831-13.119-60.54-4.133-8.978 4.312-15.624 10.099-19.677 14.275zm-10.771 1.066h.01z" fill="#1E284C"/><path d="M27.442 279.942s4.691 86.884 77.098 77.251c0 0 13.261-61.534-77.098-77.251z" fill="#95FF80"/><path d="M93.637 365.442c-16.266 0-30.345-4.856-41.978-14.502-28.871-23.939-31.604-68.7-31.707-70.594a7.504 7.504 0 0 1 2.509-6.012 7.492 7.492 0 0 1 6.266-1.781c34.67 6.03 59.135 19.303 72.716 39.449 15.364 22.791 10.638 45.802 10.43 46.771a7.499 7.499 0 0 1-6.343 5.854c-4.083.543-8.05.814-11.893.814zm10.903-8.249h.01zm-68.331-67.824c2.313 13.168 8.592 36.435 25.074 50.065 9.741 8.057 21.976 11.708 36.447 10.882.206-6.582-.839-18.371-8.891-30.172-9.967-14.608-27.646-24.938-52.631-30.775z" fill="#1E284C"/><path d="M119.875 281.486s22.759-52.128 82.945-32.668c-6.255 42.255-54.696 52.871-82.945 32.668z" fill="#95FF80"/><path d="M151.841 298.892c-12.994 0-25.906-3.852-36.329-11.306a7.5 7.5 0 0 1-2.51-9.102c.262-.602 6.596-14.858 21.083-26.48 13.494-10.826 36.771-21.402 71.042-10.323a7.5 7.5 0 0 1 5.111 8.235c-2.986 20.175-15.219 36.212-33.56 43.999-7.868 3.341-16.371 4.977-24.838 4.977zM129.9 278.811c12.366 6.265 27.774 6.878 40.918 1.297 11.624-4.935 19.688-14.039 23.189-25.996-37.502-9.08-57.011 13.555-64.107 24.699z" fill="#1E284C"/><path d="M48.118 226.843s8.617 64.547 71.758 54.643c-1.856-64.764-71.758-54.643-71.758-54.643z" fill="#95FF80"/><path d="M107.138 290.024c-14.583 0-27.326-4.012-38.017-11.992-23.868-17.817-28.263-48.883-28.438-50.197a7.5 7.5 0 0 1 6.359-8.415c1.478-.213 36.451-5.011 60.014 14.803 12.896 10.845 19.731 26.674 20.315 47.049a7.5 7.5 0 0 1-6.335 7.624c-4.801.753-9.437 1.129-13.899 1.129zm-49.736-56.239c2.605 8.867 8.483 23.158 20.778 32.291 9.073 6.739 20.386 9.674 33.691 8.777-1.543-12.549-6.375-22.318-14.412-29.103-12.095-10.21-29.091-11.968-39.358-11.968-.236 0-.47 0-.699.002zm-9.284-6.942h.01z" fill="#1E284C"/><path d="M195.906 165.679s-12.406 69.24-76.458 41.174c11.234-57.73 76.458-41.174 76.458-41.174z" fill="#95FF80"/><path d="M147.652 221.066c-9.612 0-20.04-2.448-31.214-7.345a7.5 7.5 0 0 1-4.353-8.302c3.466-17.808 11.951-31.102 25.222-39.515 25.433-16.123 59.025-7.854 60.444-7.496a7.502 7.502 0 0 1 5.537 8.593c-.253 1.407-6.473 34.632-32.152 48.338-7.154 3.818-15.002 5.727-23.484 5.727zm-19.378-18.765c14.086 5.039 26.107 4.977 35.799-.195 13.035-6.957 19.586-21.571 22.485-30.437-9.893-1.218-27.627-1.748-41.281 6.942-8.141 5.183-13.843 13.135-17.003 23.689z" fill="#1E284C"/><path d="M119.447 206.852c-54.72 20.908-72.465-33.84-72.465-33.84s62.085-19.059 72.465 33.84z" fill="#95FF80"/><path d="M95.874 219.128c-8.21 0-15.943-1.724-23.149-5.17-23.816-11.394-32.518-37.526-32.877-38.633a7.504 7.504 0 0 1 4.933-9.482c1.397-.428 34.482-10.329 58.913 4.304 12.177 7.291 19.953 19.155 23.113 35.262a7.498 7.498 0 0 1-4.683 8.45c-9.192 3.513-17.965 5.27-26.251 5.27zM57.582 178.35c3.738 6.949 10.687 16.888 21.715 22.124 9.01 4.278 19.469 4.769 31.157 1.475-2.796-8.558-7.549-14.774-14.418-18.904-12.32-7.406-28.679-6.316-38.454-4.694z" fill="#1E284C"/><path d="M110.681 146.361s-5.853-46.825 56.85-48.073c-5.158 52.955-56.85 48.073-56.85 48.073z" fill="#95FF80"/><path d="M114.027 153.976c-2.393 0-3.867-.131-4.052-.148a7.5 7.5 0 0 1-6.737-6.537c-.103-.825-2.366-20.398 11.568-36.503 11.071-12.796 28.761-19.524 52.575-19.998a7.565 7.565 0 0 1 5.653 2.403 7.5 7.5 0 0 1 1.961 5.822c-3.031 31.116-20.734 44.438-35.052 50.136-10.444 4.156-20.517 4.825-25.917 4.825zm44.592-47.634c-14.732 1.576-25.631 6.356-32.469 14.26-5.322 6.151-7.202 13.194-7.825 18.205 4.43-.337 10.458-1.287 16.522-3.774 12.447-5.104 20.416-14.735 23.771-28.69z" fill="#1E284C"/><path d="M46.311 114.687s11.954 47.398 64.37 31.674c-8.216-46.408-64.37-31.674-64.37-31.674z" fill="#95FF80"/><path d="M90.633 157.071c-9.474 0-18.093-2.182-25.771-6.539-19.898-11.291-25.593-33.089-25.825-34.012a7.502 7.502 0 0 1 5.369-9.089c1.29-.339 31.841-8.128 53.72 5.881 10.717 6.862 17.426 17.541 19.938 31.741a7.5 7.5 0 0 1-5.229 8.491c-7.838 2.352-15.251 3.526-22.202 3.526zm-33.939-36.578c2.796 5.453 7.713 12.578 15.696 17.063 8.004 4.498 17.792 5.623 29.173 3.365-2.289-6.554-6.08-11.477-11.48-14.948-10.402-6.687-24.496-6.503-33.389-5.48zm-10.384-5.807h.01z" fill="#1E284C"/><path d="M55.225 7.5s71.147 29.627 40.992 80.063C33.94 87.026 55.225 7.5 55.225 7.5" fill="#95FF80"/><path d="M96.216 95.063h-.064c-17.896-.154-31.51-6.201-40.465-17.973C36.049 51.276 47.484 7.415 47.98 5.56A7.502 7.502 0 0 1 58.108.575c1.652.688 40.574 17.199 50.675 47.815 4.623 14.013 2.561 28.486-6.129 43.021a7.501 7.501 0 0 1-6.438 3.651zm-35.56-76.468c-1.988 12.664-3.621 35.521 6.988 49.439 5.386 7.063 13.342 10.958 24.241 11.839 4.636-9.32 5.504-18.104 2.665-26.743-5.446-16.575-23.224-28.6-33.895-34.535z" fill="#1E284C"/></svg></g><g transform="translate(779.9999999999999 2123.076923076923) rotate(0.0 70.38461538461542 68.0769230769231) scale(2.0445785151667515 2.0562697640052887)"><svg width="68.85" height="66.214" viewBox="0 0 68.85 66.214"><g fill="#95FF80"><path d="m34.425 7.5 8.32 16.859 18.605 2.703-13.463 13.123 3.178 18.529-16.64-8.748-16.641 8.748 3.178-18.529L7.5 27.062l18.605-2.703z"/><path d="M51.064 66.214a7.49 7.49 0 0 1-3.489-.861l-13.15-6.913-13.149 6.913a7.5 7.5 0 0 1-10.881-7.906l2.511-14.644-10.64-10.37a7.5 7.5 0 0 1 4.158-12.792l14.702-2.137 6.575-13.322C28.963 1.621 31.57 0 34.424 0s5.462 1.621 6.726 4.181l6.575 13.322 14.702 2.137a7.5 7.5 0 0 1 4.158 12.792L55.946 42.803l2.511 14.644a7.5 7.5 0 0 1-7.392 8.768zm-16.64-23.748a7.5 7.5 0 0 1 3.49.861l3.189 1.677-.609-3.552a7.502 7.502 0 0 1 2.157-6.638l2.58-2.516-3.565-.519a7.496 7.496 0 0 1-5.647-4.103l-1.595-3.231-1.595 3.231a7.5 7.5 0 0 1-5.647 4.103l-3.565.519 2.581 2.515a7.498 7.498 0 0 1 2.156 6.639l-.608 3.552 3.188-1.677a7.5 7.5 0 0 1 3.49-.861z"/></g></svg></g><g transform="translate(964.6153846153845 2220.0) rotate(0.0 79.61538461538464 77.30769230769215) scale(2.716414228236536 2.737379116112535)"><svg width="58.618" height="56.483" viewBox="0 0 58.618 56.483"><g fill="#95FF80"><path d="m29.309 7.5 6.739 13.655 15.07 2.19-10.904 10.629 2.574 15.009-13.479-7.086-13.479 7.086 2.575-15.009L7.5 23.345l15.07-2.19z"/><path d="M42.786 56.483a7.49 7.49 0 0 1-3.489-.861l-9.988-5.251-9.988 5.251a7.504 7.504 0 0 1-7.898-.571 7.495 7.495 0 0 1-2.983-7.335l1.907-11.123-8.081-7.876a7.5 7.5 0 0 1 4.158-12.792l11.167-1.623 4.994-10.12C23.847 1.621 26.454 0 29.309 0s5.462 1.621 6.726 4.181l4.994 10.12 11.168 1.623a7.5 7.5 0 0 1 4.157 12.792l-8.081 7.876 1.907 11.123a7.5 7.5 0 0 1-7.392 8.768zM29.308 34.397a7.5 7.5 0 0 1 3.49.861l.027.015-.005-.031a7.499 7.499 0 0 1 2.157-6.639l.021-.021-.03-.005a7.496 7.496 0 0 1-5.647-4.103l-.014-.028-.014.028a7.5 7.5 0 0 1-5.647 4.103l-.03.005.022.021a7.498 7.498 0 0 1 2.156 6.639l-.005.031.027-.015a7.5 7.5 0 0 1 3.49-.861z"/></g></svg></g><g transform="translate(2434.6153846153843 1763.0769230769229) rotate(-14.310340228879022 126.9230769230769 122.30769230769238) scale(2.3341531162005076 2.348345265831947)"><svg width="108.753" height="104.165" viewBox="0 0 108.753 104.165"><g fill="#95FF80"><path d="m54.377 7.5 14.485 29.351 32.391 4.707-23.438 22.847 5.533 32.26-28.971-15.231-28.972 15.231 5.533-32.26L7.5 41.558l32.391-4.707z"/><path d="M83.347 104.165a7.49 7.49 0 0 1-3.489-.861L54.377 89.908l-25.481 13.396a7.504 7.504 0 0 1-7.898-.571 7.495 7.495 0 0 1-2.983-7.335l4.866-28.374L2.264 46.929a7.5 7.5 0 0 1 4.158-12.792l28.489-4.141 12.74-25.815a7.501 7.501 0 0 1 13.452 0l12.74 25.815 28.489 4.141a7.501 7.501 0 0 1 4.158 12.792L85.875 67.023l4.866 28.374a7.5 7.5 0 0 1-7.392 8.768zM54.376 73.934a7.5 7.5 0 0 1 3.49.861l15.521 8.16-2.964-17.282a7.501 7.501 0 0 1 2.156-6.639l12.557-12.239-17.353-2.521a7.496 7.496 0 0 1-5.647-4.103l-7.76-15.724-7.76 15.724a7.5 7.5 0 0 1-5.647 4.103l-17.353 2.521 12.557 12.239a7.498 7.498 0 0 1 2.156 6.639l-2.964 17.282 15.521-8.16a7.5 7.5 0 0 1 3.49-.861z"/></g></svg></g><g transform="translate(221.53846153846152 957.6923076923076) rotate(-14.310340228879022 126.92307692307692 122.30769230769226) scale(2.334153116200508 2.3483452658319446)"><svg width="108.753" height="104.165" viewBox="0 0 108.753 104.165"><g fill="#DEA2FF"><path d="m54.377 7.5 14.485 29.351 32.391 4.707-23.438 22.847 5.533 32.26-28.971-15.231-28.972 15.231 5.533-32.26L7.5 41.558l32.391-4.707z"/><path d="M83.347 104.165a7.49 7.49 0 0 1-3.489-.861L54.377 89.908l-25.481 13.396a7.504 7.504 0 0 1-7.898-.571 7.495 7.495 0 0 1-2.983-7.335l4.866-28.374L2.264 46.929a7.5 7.5 0 0 1 4.158-12.792l28.489-4.141 12.74-25.815a7.501 7.501 0 0 1 13.452 0l12.74 25.815 28.489 4.141a7.501 7.501 0 0 1 4.158 12.792L85.875 67.023l4.866 28.374a7.5 7.5 0 0 1-7.392 8.768zM54.376 73.934a7.5 7.5 0 0 1 3.49.861l15.521 8.16-2.964-17.282a7.501 7.501 0 0 1 2.156-6.639l12.557-12.239-17.353-2.521a7.496 7.496 0 0 1-5.647-4.103l-7.76-15.724-7.76 15.724a7.5 7.5 0 0 1-5.647 4.103l-17.353 2.521 12.557 12.239a7.498 7.498 0 0 1 2.156 6.639l-2.964 17.282 15.521-8.16a7.5 7.5 0 0 1 3.49-.861z"/></g></svg></g><g transform="translate(1963.8461538461536 1135.3846153846152) rotate(0.0 81.92307692307702 81.9230769230769) scale(1.9428935248740562 1.9428935248740535)"><svg width="84.331" height="84.331" viewBox="0 0 84.331 84.331"><circle cx="42.165" cy="42.165" fill="#DEA2FF" r="42.165"/></svg></g><g transform="translate(214.61538461538458 1486.153846153846) rotate(0.0 288.46153846153845 280.38461538461536) scale(2.3056541094595455 2.3011203836336995)"><svg width="250.221" height="243.694" viewBox="0 0 250.221 243.694"><path d="M196.216 243.719c-12.27 0-25.409-2.213-37.679-8.652-11.725-6.153-21.207-13.584-28.671-21.732-13.13 3.528-27.272 4.935-41.171 3.033-22.346-3.056-53.606-15.898-75.634-59.723-19.906-39.606-16.692-87.558 8.188-122.163C39.084 9.678 64.787-2.985 89.983.61c19.495 2.78 33.421 14.121 39.212 31.934 7.336 22.563.091 49.534-11.279 60.568a7.5 7.5 0 0 1-10.445-10.764c6.863-6.661 13.182-27.566 7.46-45.166-4.041-12.428-13.147-19.736-27.064-21.722-19.575-2.793-39.924 7.593-54.438 27.779-16.447 22.875-28.14 64.538-6.963 106.67 15.331 30.502 36.953 47.862 64.265 51.598 9.96 1.362 19.88.73 29.22-1.196-11.668-18.699-14.601-39.361-10.972-56.48 4.939-23.3 21.702-39.245 42.705-40.624 17.505-1.144 31.728 6.833 38.995 21.901 8.911 18.477 4.549 43.031-10.608 59.711-7.881 8.672-20.064 17.036-34.425 23.093 5.52 5.105 12.111 9.806 19.864 13.875 31.926 16.753 73.649-2.152 74.068-2.345a7.5 7.5 0 0 1 6.289 13.617c-1.347.622-23.52 10.66-49.649 10.661zm-41.311-125.62c-.735 0-1.481.024-2.241.075-14.334.94-25.451 11.963-29.014 28.766-3.13 14.766-.036 32.889 11.433 49.009 14.969-5.557 27.229-13.895 33.884-21.219 11.15-12.271 14.521-29.997 8.199-43.107-4.233-8.777-12.088-13.523-22.261-13.523z" fill="#DEA2FF"/></svg></g></svg>