<svg xmlns="http://www.w3.org/2000/svg" xmlns:xlink="http://www.w3.org/1999/xlink" width="1080" zoomAndPan="magnify" viewBox="0 0 810 809.999993" height="1080" preserveAspectRatio="xMidYMid meet" version="1.0"><defs><clipPath id="2fb8bb3472"><path d="M 97.148438 171.03125 L 387 171.03125 L 387 639 L 97.148438 639 Z M 97.148438 171.03125 " clip-rule="nonzero"/></clipPath><clipPath id="d6844b9fa3"><path d="M 415 171.03125 L 712.898438 171.03125 L 712.898438 639 L 415 639 Z M 415 171.03125 " clip-rule="nonzero"/></clipPath></defs><g clip-path="url(#2fb8bb3472)"><path fill="#c8ad97" d="M 256.484375 371.335938 C 227.363281 371.335938 200.558594 381.039062 178.894531 397.203125 C 181.027344 329.734375 233.179688 262.234375 336.082031 194.726562 L 320.8125 171.03125 C 171.710938 263.675781 97.148438 365.355469 97.148438 476.050781 C 97.148438 526.882812 110.980469 566.71875 138.664062 595.496094 C 166.328125 624.328125 201.359375 638.707031 243.714844 638.707031 C 286.097656 638.707031 320.246094 627.140625 346.238281 603.976562 C 372.210938 580.839844 385.214844 552.851562 385.214844 520.109375 C 385.214844 519.742188 385.144531 519.46875 385.144531 519.074219 C 385.941406 513.269531 386.5 507.402344 386.5 501.335938 C 386.5 429.558594 328.269531 371.335938 256.484375 371.335938 Z M 256.484375 371.335938 " fill-opacity="1" fill-rule="nonzero"/></g><g clip-path="url(#d6844b9fa3)"><path fill="#c8ad97" d="M 676.847656 591.097656 C 678.527344 589.152344 680.566406 587.300781 682.113281 585.265625 C 701.261719 562.613281 712.894531 533.367188 712.894531 501.339844 C 712.894531 429.566406 654.675781 371.324219 582.890625 371.324219 C 550.011719 371.324219 520.078125 383.625 497.175781 403.777344 C 497.175781 402.976562 497.042969 402.296875 497.042969 401.472656 C 497.042969 332.570312 549.5625 263.632812 654.636719 194.714844 L 639.378906 171.03125 C 490.257812 263.675781 415.699219 365.355469 415.699219 476.074219 C 415.699219 526.910156 429.527344 566.738281 457.226562 595.515625 C 484.882812 624.34375 519.90625 638.742188 562.265625 638.742188 C 604.621094 638.742188 638.8125 627.160156 664.785156 603.980469 C 668.460938 600.746094 671.3125 597.113281 674.460938 593.648438 C 675.289062 592.824219 676.035156 591.960938 676.847656 591.097656 Z M 676.847656 591.097656 " fill-opacity="1" fill-rule="nonzero"/></g></svg>