<svg width="669" height="789" viewBox="0 0 669 789" fill="none" xmlns="http://www.w3.org/2000/svg">
<g filter="url(#filter0_d_1108_412)">
<g clip-path="url(#clip0_1108_412)">
<path d="M498.931 597.157L495.523 597.311L492.112 597.466L488.7 597.621L485.288 597.776L481.869 597.93L478.451 598.085L477.147 586.713L473.41 575.947L465.985 567.455L455.811 562.634L444.802 560.195L433.634 558.62L415.048 555.631L397.183 549.731L381.816 538.849L371.189 523.174L365.463 504.999L363.285 486.01L366.693 485.855L370.105 485.701L373.516 485.546L376.93 485.39L380.347 485.235L383.765 485.08L385.228 499.28L389.121 512.97L396.955 524.715L408.797 532.225L422.346 535.906L436.252 537.957L452.139 540.391L467.581 544.816L481.369 553.06L491.413 565.685L496.91 580.972L498.931 597.157Z" fill="#C3ACF1"/>
<path d="M478.544 600.181L476.403 598.329L475.124 587.189L471.6 577.032L464.727 569.173L455.148 564.633L444.44 562.262L433.351 560.698L414.411 557.626L396.546 551.727L396.004 551.453L380.639 540.57L380.12 540.04L369.491 524.366L369.226 523.815L363.416 505.245L361.238 486.254L363.196 483.916L383.675 482.986L385.82 484.862L387.263 498.876L391.014 512.068L398.418 523.17L409.629 530.279L422.763 533.848L436.549 535.881L452.7 538.371L468.63 543.007L482.417 551.251L482.976 551.741L493.02 564.366L493.353 564.965L498.959 580.707L500.98 596.892L499.025 599.252L478.544 600.181ZM415.532 553.586L433.959 556.548L445.244 558.146L456.686 560.734L466.861 565.556L467.53 566.063L474.957 574.555L475.36 575.251L479.199 586.472L480.282 595.906L496.605 595.165L494.895 581.473L489.594 566.735L480.001 554.676L466.767 546.762L451.706 542.446L435.947 540.032L421.815 537.933L408.266 534.251L407.707 534.004L395.864 526.493L395.247 525.891L387.415 514.147L387.142 513.553L383.177 499.499L381.917 487.264L365.594 488.005L367.491 504.555L373.061 522.239L383.305 537.345L398.113 547.832L415.532 553.586Z" fill="#231F20"/>
<path d="M503.02 603.055L500.888 601.649L498.754 600.241L496.623 598.836L494.486 597.426L492.347 596.016L490.208 594.605L489.023 576.029L490.454 557.462L494.074 539.202L499.932 521.556L508.519 505.118L520.907 491.505L526.257 488.14L532.103 485.782L538.284 484.607L544.571 484.694L550.729 485.99L556.581 488.342L562.391 492.02L567.27 496.893L570.928 502.767L573.235 509.312L574.241 516.193L574.101 523.154L569.469 541.382L560.822 558.073L549.445 572.989L535.846 585.839L520.278 596.119L503.02 603.055ZM541.33 505.319L539.843 505.374L538.377 505.628L536.955 506.072L535.593 506.68L534.297 507.423L533.066 508.276L524.829 517.688L519.065 528.893L514.866 540.804L511.895 553.097L510.068 565.621L509.472 578.265L519.963 571.722L529.431 563.721L537.82 554.56L544.995 544.389L550.599 533.252L553.689 521.179L553.813 518.415L553.608 515.656L552.955 512.971L551.727 510.509L549.877 508.486L547.564 507.054L546.575 506.593L545.564 506.188L544.532 505.848L543.479 505.582L542.41 505.403L541.33 505.319Z" fill="#C3ACF1"/>
<path d="M503.778 605.005L501.896 604.814L489.082 596.365L488.145 594.742L486.961 576.166L486.962 575.867L488.427 557.05L492.114 538.534L498.106 520.575L507 503.695L519.388 490.082L519.817 489.723L525.492 486.193L531.72 483.721L538.308 482.512L544.985 482.642L551.484 484.04L557.667 486.562L563.832 490.524L569.009 495.771L572.866 502.059L575.272 509.005L576.3 516.237L576.095 523.68L571.291 542.359L562.449 559.359L550.847 574.525L536.966 587.6L521.032 598.071L503.778 605.005ZM492.198 593.42L503.251 600.708L519.323 594.247L534.568 584.181L547.914 571.57L559.076 556.935L567.526 540.623L572.038 522.869L572.169 516.329L571.22 509.827L569.058 503.693L565.649 498.22L561.103 493.678L555.645 490.222L550.133 488.007L544.342 486.79L538.458 486.709L532.676 487.807L527.186 490.022L522.229 493.138L510.213 506.341L501.831 522.388L496.068 539.747L492.5 557.753L491.091 576.043L492.198 593.42ZM510.55 580.053L507.41 578.166L508.026 565.315L509.89 552.598L512.922 540.098L517.235 527.923L523.287 516.295L531.903 506.545L533.281 505.599L534.763 504.76L536.349 504.068L538.029 503.562L539.767 503.278L541.254 503.222L542.744 503.333L543.975 503.544L545.169 503.85L546.201 504.19L548.639 505.261L550.951 506.692L551.389 507.056L553.239 509.079L553.569 509.558L554.959 512.465L555.666 515.494L555.875 518.507L555.686 521.703L552.437 534.204L546.671 545.608L539.33 555.986L530.75 565.33L521.043 573.506L510.55 580.053ZM512.124 565.827L511.72 574.403L518.757 570.014L528.008 562.194L536.219 553.229L543.226 543.294L548.658 532.501L551.636 520.863L551.745 518.446L551.562 515.988L551.006 513.703L550.017 511.718L548.559 510.124L546.593 508.907L544.804 508.135L543.06 507.636L542.162 507.486L541.287 507.419L540.053 507.465L538.853 507.674L537.673 508.043L536.514 508.559L535.385 509.207L534.436 509.866L526.538 518.89L520.956 529.739L516.842 541.413L513.918 553.504L512.124 565.827Z" fill="#231F20"/>
<path d="M518.022 611.294L517.242 605.227L514.936 599.574L511.267 594.722L506.492 590.995L500.93 588.652L494.959 587.857L488.988 588.652L483.426 590.995L478.651 594.723L474.982 599.574L472.677 605.227L471.896 611.294L472.677 617.363L474.984 623.015L478.651 627.868L483.426 631.595L488.988 633.938L494.959 634.731L500.931 633.938L506.493 631.595L511.267 627.867L514.936 623.015L517.242 617.363L518.022 611.294Z" fill="#C3ACF1"/>
<path d="M495.228 636.811H494.693L488.722 636.018L488.2 635.875L482.637 633.532L482.171 633.258L477.396 629.53L477.016 629.145L473.347 624.293L473.078 623.819L470.772 618.166L470.632 617.635L469.852 611.568V611.024L470.632 604.956L470.772 604.425L473.078 598.773L473.347 598.297L477.015 593.445L477.395 593.06L482.17 589.332L482.636 589.058L488.198 586.715L488.721 586.572L494.692 585.779H495.227L501.197 586.572L501.72 586.715L507.282 589.058L507.75 589.332L512.525 593.06L512.905 593.445L516.574 598.297L516.843 598.773L519.149 604.425L519.289 604.956L520.069 611.024V611.568L519.289 617.635L519.149 618.166L516.843 623.817L516.574 624.293L512.905 629.145L512.525 629.53L507.75 633.258L507.284 633.532L501.721 635.875L501.199 636.018L495.228 636.811ZM489.527 631.895L494.96 632.616L500.393 631.895L505.451 629.763L509.796 626.37L513.133 621.955L515.23 616.814L515.94 611.294L515.23 605.773L513.132 600.632L509.793 596.217L505.448 592.825L500.39 590.695L494.957 589.973L489.524 590.695L484.466 592.827L480.121 596.218L476.784 600.633L474.687 605.774L473.979 611.294L474.689 616.814L476.787 621.955L480.124 626.37L484.469 629.762L489.527 631.895Z" fill="#231F20"/>
<path d="M627.821 778.41H362.098V641.865H627.821V755.648V778.41Z" fill="#EE4878"/>
<path d="M627.822 780.507H362.099L360.035 778.41V641.865L362.099 639.768H627.82L629.884 641.865V778.41L627.822 780.507ZM364.162 776.313H625.757V643.962H364.162V776.313Z" fill="#231F20"/>
<path d="M505.488 777.787H484.432V666.377H505.488V759.21V777.787Z" fill="#C3ACF1"/>
<path d="M505.489 779.883H484.433L482.369 777.786V666.376L484.433 664.279H505.489L507.553 666.376V777.786L505.489 779.883ZM486.496 775.689H503.426V668.473H486.496V775.689Z" fill="#231F20"/>
<path d="M362.1 641.863L362.156 645.932L362.211 650.005L362.267 654.079L362.322 658.155L362.379 662.237L362.434 666.319L406.662 668.988L450.891 671.658L495.122 674.329L539.351 676.999L583.586 679.669L627.823 682.339V641.863H406.391H362.1Z" fill="#231F20"/>
<path d="M627.699 684.433L362.311 668.413L360.369 666.348L360.035 641.892L362.099 639.766H627.82L629.884 641.863V682.339L627.699 684.433ZM364.47 664.342L625.758 680.114V643.961H364.191L364.47 664.342Z" fill="#231F20"/>
<path d="M640.857 666.32H349.064V611.293H640.857V657.142V666.32Z" fill="#EE4878"/>
<path d="M640.856 668.417H349.064L347 666.32V611.294L349.064 609.197H640.856L642.92 611.294V666.32L640.856 668.417ZM351.127 664.223H638.793V613.391H351.127V664.223Z" fill="#231F20"/>
<path d="M505.488 666.658H484.432V611.293H505.488V657.424V666.658Z" fill="#C3ACF1"/>
<path d="M505.488 668.758H484.431L482.367 666.661V611.294L484.431 609.197H505.488L507.551 611.294V666.66L505.488 668.758ZM486.494 664.564H503.424V613.391H486.494V664.564Z" fill="#231F20"/>
</g>
<g clip-path="url(#clip1_1108_412)">
<path d="M512.909 448.161L516.316 448.314L519.728 448.47L523.14 448.625L526.552 448.78L529.97 448.934L533.389 449.089L534.693 437.717L538.43 426.951L545.854 418.459L556.029 413.637L567.038 411.199L578.206 409.624L596.792 406.635L614.657 400.735L630.024 389.853L640.651 374.178L646.377 356.003L648.555 337.014L645.147 336.858L641.735 336.705L638.323 336.55L634.91 336.394L631.493 336.239L628.074 336.084L626.612 350.284L622.719 363.973L614.885 375.718L603.043 383.229L589.494 386.91L575.588 388.961L559.701 391.395L544.259 395.819L530.471 404.064L520.427 416.689L514.93 431.976L512.909 448.161Z" fill="#EE4878"/>
<path d="M533.294 451.185L535.436 449.333L536.714 438.193L540.239 428.035L547.112 420.175L556.691 415.636L567.398 413.263L578.488 411.699L597.429 408.63L615.294 402.73L615.836 402.456L631.203 391.574L631.723 391.044L642.351 375.369L642.617 374.819L648.427 356.248L650.602 337.257L648.644 334.92L628.164 333.99L626.019 335.866L624.576 349.88L620.824 363.072L613.42 374.174L602.209 381.283L589.075 384.852L575.289 386.885L559.138 389.375L543.209 394.011L529.421 402.255L528.863 402.744L518.819 415.369L518.486 415.967L512.88 431.709L510.859 447.893L512.814 450.253L533.294 451.185ZM596.307 404.59L577.881 407.552L566.596 409.15L555.154 411.738L544.979 416.558L544.309 417.066L536.885 425.558L536.481 426.254L532.642 437.476L531.561 446.909L515.238 446.168L516.948 432.475L522.248 417.737L531.841 405.679L545.076 397.765L560.137 393.449L575.896 391.034L590.027 388.936L603.577 385.255L604.137 385.008L615.98 377.497L616.597 376.895L624.428 365.151L624.702 364.557L628.663 350.502L629.923 338.268L646.246 339.008L644.349 355.558L638.779 373.242L628.535 388.349L613.727 398.836L596.307 404.59Z" fill="#231F20"/>
<path d="M508.82 454.059L510.952 452.652L513.086 451.245L515.217 449.84L517.353 448.43L519.493 447.02L521.632 445.609L522.816 427.033L521.386 408.466L517.766 390.206L511.908 372.56L503.321 356.122L490.933 342.509L485.583 339.144L479.737 336.786L473.556 335.611L467.269 335.698L461.111 336.994L455.259 339.345L449.449 343.024L444.57 347.897L440.912 353.77L438.604 360.316L437.599 367.197L437.739 374.158L442.371 392.386L451.018 409.077L462.395 423.993L475.994 436.843L491.561 447.123L508.82 454.059ZM470.51 356.323L471.997 356.378L473.462 356.632L474.885 357.075L476.247 357.684L477.543 358.427L478.774 359.28L487.011 368.692L492.775 379.897L496.974 391.808L499.945 404.101L501.772 416.625L502.368 429.269L491.876 422.726L482.409 414.725L474.02 405.564L466.845 395.393L461.241 384.256L458.151 372.183L458.027 369.419L458.232 366.66L458.885 363.975L460.112 361.513L461.963 359.49L464.275 358.058L465.265 357.597L466.276 357.191L467.307 356.852L468.361 356.586L469.43 356.407L470.51 356.323Z" fill="#EE4878"/>
<path d="M508.062 456.009L509.944 455.818L522.757 447.369L523.692 445.746L524.877 427.17L524.876 426.871L523.41 408.054L519.724 389.538L513.732 371.579L504.838 354.699L492.45 341.086L492.021 340.727L486.346 337.197L480.118 334.725L473.531 333.516L466.855 333.647L460.356 335.045L454.172 337.567L448.007 341.529L442.83 346.776L438.973 353.063L436.567 360.008L435.539 367.241L435.744 374.684L440.548 393.364L449.39 410.363L460.993 425.529L474.874 438.603L490.807 449.075L508.062 456.009ZM519.641 444.424L508.59 451.712L492.517 445.251L477.273 435.185L463.927 422.574L452.764 407.939L444.315 391.627L439.802 373.873L439.672 367.333L440.622 360.831L442.784 354.697L446.193 349.225L450.739 344.683L456.197 341.229L461.709 339.014L467.5 337.796L473.384 337.714L479.166 338.814L484.656 341.029L489.613 344.145L501.629 357.348L510.011 373.395L515.774 390.754L519.342 408.76L520.751 427.05L519.641 444.424ZM501.289 431.057L504.43 429.17L503.813 416.319L501.949 403.602L498.917 391.102L494.604 378.927L488.552 367.298L479.936 357.548L478.558 356.603L477.076 355.764L475.49 355.071L473.81 354.565L472.071 354.281L470.584 354.226L469.096 354.335L467.864 354.546L466.67 354.853L465.638 355.192L463.201 356.263L460.888 357.695L460.451 358.058L458.6 360.081L458.27 360.561L456.881 363.467L456.174 366.498L455.964 369.511L456.153 372.707L459.402 385.208L465.168 396.612L472.509 406.99L481.089 416.334L490.796 424.51L501.289 431.057ZM499.715 416.829L500.12 425.406L493.083 421.016L483.831 413.197L475.621 404.231L468.613 394.297L463.181 383.504L460.203 371.865L460.094 369.448L460.277 366.992L460.833 364.707L461.822 362.722L463.279 361.128L465.245 359.911L467.033 359.139L468.778 358.638L469.675 358.489L470.55 358.422L471.784 358.468L472.983 358.676L474.164 359.044L475.322 359.561L476.453 360.21L477.402 360.867L485.3 369.891L490.882 380.74L494.996 392.414L497.92 404.505L499.715 416.829Z" fill="#231F20"/>
<path d="M493.818 462.298L494.598 456.231L496.904 450.578L500.573 445.726L505.348 441.999L510.91 439.655L516.881 438.861L522.851 439.655L528.413 441.999L533.189 445.727L536.858 450.578L539.163 456.231L539.943 462.298L539.163 468.367L536.856 474.019L533.189 478.872L528.413 482.599L522.851 484.942L516.881 485.735L510.909 484.942L505.347 482.599L500.573 478.87L496.904 474.019L494.598 468.367L493.818 462.298Z" fill="#EE4878"/>
<path d="M516.614 487.815H517.149L523.119 487.022L523.642 486.88L529.204 484.537L529.671 484.263L534.446 480.535L534.825 480.151L538.495 475.298L538.764 474.823L541.07 469.171L541.21 468.639L541.99 462.572V462.028L541.21 455.961L541.07 455.429L538.764 449.777L538.495 449.302L534.827 444.451L534.447 444.066L529.672 440.338L529.206 440.064L523.644 437.72L523.121 437.578L517.15 436.785H516.615L510.644 437.578L510.122 437.72L504.56 440.064L504.093 440.338L499.318 444.066L498.938 444.451L495.269 449.303L495 449.777L492.694 455.429L492.554 455.961L491.774 462.028V462.572L492.554 468.639L492.694 469.171L495 474.823L495.269 475.298L498.937 480.151L499.317 480.535L504.092 484.264L504.558 484.538L510.12 486.881L510.643 487.024L516.614 487.815ZM522.313 482.9L516.881 483.621L511.448 482.9L506.389 480.767L502.045 477.376L498.707 472.961L496.611 467.82L495.901 462.299L496.611 456.779L498.709 451.638L502.048 447.223L506.392 443.831L511.451 441.699L516.883 440.978L522.316 441.699L527.375 443.831L531.719 447.224L535.055 451.637L537.152 456.777L537.862 462.298L537.152 467.819L535.054 472.959L531.715 477.374L527.37 480.766L522.313 482.9Z" fill="#231F20"/>
<path d="M384.019 629.414H649.742V492.869H384.019V606.651V629.414Z" fill="white"/>
<path d="M384.018 631.509H649.741L651.805 629.412V492.867L649.741 490.77H384.02L381.956 492.867V629.412L384.018 631.509ZM647.678 627.315H386.083V494.964H647.678V627.315Z" fill="#231F20"/>
<path d="M506.351 628.791H527.408V517.381H506.351V610.213V628.791Z" fill="#EE4878"/>
<path d="M506.35 630.887H527.407L529.471 628.79V517.38L527.407 515.283H506.35L504.287 517.38V628.79L506.35 630.887ZM525.344 626.693H508.414V519.477H525.344V626.693Z" fill="#231F20"/>
<path d="M649.74 492.867L649.684 496.935L649.629 501.009L649.572 505.083L649.517 509.159L649.461 513.241L649.406 517.323L605.178 519.992L560.949 522.662L516.718 525.332L472.488 528.003L428.254 530.673L384.017 533.343V492.867H605.449H649.74Z" fill="#231F20"/>
<path d="M384.141 535.438L649.529 519.417L651.47 517.352L651.805 492.896L649.741 490.77H384.02L381.956 492.867V533.344L384.141 535.438ZM647.369 515.346L386.082 531.118V494.964H647.649L647.369 515.346Z" fill="#231F20"/>
<path d="M370.983 517.324H662.775V462.297H370.983V508.146V517.324Z" fill="white"/>
<path d="M370.983 519.422H662.776L664.84 517.325V462.298L662.776 460.201H370.983L368.92 462.298V517.324L370.983 519.422ZM660.713 515.228H373.047V464.395H660.713V515.228Z" fill="#231F20"/>
<path d="M506.351 517.662H527.408V462.297H506.351V508.428V517.662Z" fill="#EE4878"/>
<path d="M506.352 519.76H527.409L529.473 517.663V462.298L527.409 460.201H506.352L504.289 462.298V517.663L506.352 519.76ZM525.345 515.566H508.416V464.395H525.345V515.566Z" fill="#231F20"/>
</g>
<g clip-path="url(#clip2_1108_412)">
<path d="M347.623 777.31H49.4978C26.3794 777.31 7.63867 758.23 7.63867 734.695V46.5174C7.63867 22.982 26.3794 3.90234 49.4978 3.90234H347.623C370.741 3.90234 389.482 22.982 389.482 46.5174V734.695C389.482 758.23 370.741 777.31 347.623 777.31Z" fill="#430C61"/>
<path d="M347.624 780.507H49.4986C24.6861 780.507 4.5 759.956 4.5 734.696V46.5182C4.5 21.2577 24.6861 0.707031 49.4986 0.707031H347.624C372.436 0.707031 392.622 21.2577 392.622 46.5182V734.696C392.622 759.956 372.436 780.507 347.624 780.507ZM49.4986 7.09929C28.1483 7.09929 10.7789 24.7824 10.7789 46.5182V734.696C10.7789 756.432 28.1483 774.115 49.4986 774.115H347.624C368.974 774.115 386.344 756.432 386.344 734.696V46.5182C386.344 24.7824 368.974 7.09929 347.624 7.09929H49.4986Z" fill="#430C61"/>
<path d="M378.721 777.31H80.5955C57.4771 777.31 38.7363 758.23 38.7363 734.695V46.5174C38.7363 22.982 57.4771 3.90234 80.5955 3.90234H378.721C401.839 3.90234 420.58 22.982 420.58 46.5174V734.695C420.58 758.23 401.839 777.31 378.721 777.31Z" fill="#FFF4E2"/>
<path d="M38.7363 510.668H87.475C92.8242 510.668 97.1671 515.089 97.1671 520.535V767.119C97.1671 772.565 92.8242 776.986 87.475 776.986H76.271C55.5553 776.986 38.7367 759.864 38.7367 738.774L38.7363 510.668ZM166.421 510.668H265.173C270.836 510.668 275.433 515.348 275.433 521.113V776.987H156.162V521.113C156.162 515.348 160.759 510.668 166.422 510.668H166.421ZM325.8 510.668H417.79V744.283C417.79 762.332 403.396 776.986 385.666 776.986H325.8C320.087 776.986 315.449 772.264 315.449 766.448V521.206C315.449 515.39 320.087 510.668 325.8 510.668ZM371.268 342.239H422.92V451.914H371.268C365.411 451.914 360.656 447.073 360.656 441.11V353.043C360.656 347.08 365.412 342.239 371.268 342.239ZM388.182 7.1543H396.6C409.578 13.8768 411.881 20.5124 421.613 32.6185V279.567H388.181C384.25 279.567 381.064 276.323 381.064 272.321V14.401C381.064 10.399 384.25 7.15472 388.181 7.15472L388.182 7.1543ZM38.7363 324.182H301.573C307.152 324.182 311.682 328.793 311.682 334.473V441.623C311.682 447.302 307.152 451.914 301.573 451.914H38.7363V324.182ZM42.6845 82.2493H120.569C122.748 82.2493 124.518 84.0506 124.518 86.2692V274.242C124.518 276.461 122.748 278.262 120.569 278.262H38.7363V86.2692C38.7363 84.0506 40.5053 82.2493 42.6845 82.2493Z" fill="#F3DFBF"/>
<path d="M279.599 132.25H168.665C162.468 132.25 157.443 137.365 157.443 143.675V266.836C157.443 273.146 162.468 278.261 168.665 278.261H279.599C285.797 278.261 290.821 273.146 290.821 266.836V143.675C290.821 137.365 285.797 132.25 279.599 132.25Z" fill="#F3DFBF"/>
<path d="M84.0003 2.73242H326.234C331.717 2.73242 336.168 7.26453 336.168 12.8467V81.8741C336.168 87.4563 331.717 91.9884 326.234 91.9884H48.6712C43.188 91.9884 38.7363 87.4563 38.7363 81.8741V48.8142C38.7363 23.3811 59.0183 2.73242 84.0003 2.73242Z" fill="#F3DFBF"/>
<path d="M267.801 24.4336H191.518C184.672 24.4336 179.123 30.0831 179.123 37.0523C179.123 44.0216 184.672 49.6711 191.518 49.6711H267.801C274.646 49.6711 280.196 44.0216 280.196 37.0523C280.196 30.0831 274.646 24.4336 267.801 24.4336Z" fill="#430C61"/>
<path d="M267.8 52.868H191.517C182.951 52.868 175.982 45.7735 175.982 37.0532C175.982 28.3328 182.951 21.2383 191.517 21.2383H267.8C276.365 21.2383 283.334 28.3328 283.334 37.0532C283.334 45.7735 276.365 52.868 267.8 52.868ZM191.517 27.6305C186.413 27.6305 182.261 31.8575 182.261 37.0532C182.261 42.2488 186.413 46.4758 191.517 46.4758H267.8C272.903 46.4758 277.055 42.2488 277.055 37.0532C277.055 31.8575 272.903 27.6305 267.8 27.6305H191.517Z" fill="#430C61"/>
<path d="M378.722 780.507H80.5962C55.7838 780.507 35.5977 759.956 35.5977 734.696V46.5182C35.5977 21.2577 55.7838 0.707031 80.5962 0.707031H378.722C403.534 0.707031 423.72 21.2577 423.72 46.5182V734.696C423.72 759.956 403.534 780.507 378.722 780.507ZM80.5962 7.09929C59.246 7.09929 41.8765 24.7824 41.8765 46.5182V734.696C41.8765 756.432 59.246 774.115 80.5962 774.115H378.722C400.072 774.115 417.441 756.432 417.441 734.696V46.5182C417.441 24.7824 400.072 7.09929 378.722 7.09929H80.5962Z" fill="#430C61"/>
<path d="M290.822 762.306H168.495C167.662 762.306 166.864 761.97 166.275 761.37C165.686 760.771 165.355 759.958 165.355 759.11C165.355 758.263 165.686 757.45 166.275 756.85C166.864 756.251 167.662 755.914 168.495 755.914H290.822C291.655 755.914 292.453 756.251 293.042 756.85C293.631 757.45 293.962 758.263 293.962 759.11C293.962 759.958 293.631 760.771 293.042 761.37C292.453 761.97 291.655 762.306 290.822 762.306Z" fill="#430C61"/>
</g>
<g clip-path="url(#clip3_1108_412)">
<path d="M229.864 499.222C288.503 499.222 336.039 450.905 336.039 391.304C336.039 331.702 288.503 283.385 229.864 283.385C171.226 283.385 123.689 331.702 123.689 391.304C123.689 450.905 171.226 499.222 229.864 499.222Z" fill="#142664"/>
<path d="M206.537 406.02C209.755 409.29 213.777 409.29 216.994 406.02L277.321 344.703C280.538 341.432 284.56 341.432 287.777 344.703L302.256 359.419C305.473 362.689 305.473 366.777 302.256 370.047L216.994 456.709C213.777 459.98 209.755 459.98 206.537 456.709L157.472 406.838C154.254 403.567 154.254 399.48 157.472 396.209L171.95 381.493C173.559 379.858 175.167 379.04 177.581 379.04C179.189 379.04 181.602 379.858 183.211 381.493C188.842 388.034 200.103 399.48 206.537 406.02Z" fill="#00E6B3"/>
</g>
</g>
<defs>
<filter id="filter0_d_1108_412" x="0.5" y="0.707031" width="668.34" height="787.801" filterUnits="userSpaceOnUse" color-interpolation-filters="sRGB">
<feFlood flood-opacity="0" result="BackgroundImageFix"/>
<feColorMatrix in="SourceAlpha" type="matrix" values="0 0 0 0 0 0 0 0 0 0 0 0 0 0 0 0 0 0 127 0" result="hardAlpha"/>
<feOffset dy="4"/>
<feGaussianBlur stdDeviation="2"/>
<feComposite in2="hardAlpha" operator="out"/>
<feColorMatrix type="matrix" values="0 0 0 0 0 0 0 0 0 0 0 0 0 0 0 0 0 0 0.25 0"/>
<feBlend mode="normal" in2="BackgroundImageFix" result="effect1_dropShadow_1108_412"/>
<feBlend mode="normal" in="SourceGraphic" in2="effect1_dropShadow_1108_412" result="shape"/>
</filter>
<clipPath id="clip0_1108_412">
<rect width="295.92" height="297.995" fill="white" transform="translate(347 482.512)"/>
</clipPath>
<clipPath id="clip1_1108_412">
<rect width="295.92" height="297.995" fill="white" transform="matrix(-1 0 0 1 664.84 333.516)"/>
</clipPath>
<clipPath id="clip2_1108_412">
<rect width="419.22" height="779.8" fill="white" transform="translate(4.5 0.707031)"/>
</clipPath>
<clipPath id="clip3_1108_412">
<rect width="212.35" height="215.837" fill="white" transform="translate(123.689 283.385)"/>
</clipPath>
</defs>
</svg>
