<svg width="16" height="382" viewBox="0 0 16 382" fill="none" xmlns="http://www.w3.org/2000/svg">
<path d="M8 30C3.58172 30 -1.4679e-06 33.5817 -1.66103e-06 38C-1.85416e-06 42.4183 3.58172 46 8 46C12.4183 46 16 42.4183 16 38C16 33.5817 12.4183 30 8 30ZM6.5 -6.55671e-08L6.5 38L9.5 38L9.5 6.55671e-08L6.5 -6.55671e-08Z" fill="#D7CBA1"/>
<path d="M8 142C3.58172 142 -4.39657e-06 145.582 -4.5897e-06 150C-4.78283e-06 154.418 3.58172 158 8 158C12.4183 158 16 154.418 16 150C16 145.582 12.4183 142 8 142ZM6.5 45L6.5 150L9.5 150L9.5 45L6.5 45Z" fill="#D7CBA1"/>
<path d="M8 254C3.58172 254 -4.39657e-06 257.582 -4.5897e-06 262C-4.78283e-06 266.418 3.58172 270 8 270C12.4183 270 16 266.418 16 262C16 257.582 12.4183 254 8 254ZM6.5 157L6.5 262L9.5 262L9.5 157L6.5 157Z" fill="#D7CBA1"/>
<path d="M8 366C3.58172 366 -4.39657e-06 369.582 -4.5897e-06 374C-4.78283e-06 378.418 3.58172 382 8 382C12.4183 382 16 378.418 16 374C16 369.582 12.4183 366 8 366ZM6.5 269L6.5 374L9.5 374L9.5 269L6.5 269Z" fill="#D7CBA1"/>
</svg>
