<svg width="90" height="67" viewBox="0 0 90 67" fill="none" xmlns="http://www.w3.org/2000/svg">
 <path d="M64.3 41.2008C64.3 35.1008 51.7 34.2008 51.7 19.2008C51.7 8.20079 59.6 0.000789779 70.6 0.000789779C82.3 0.10079 90 10.6008 90 21.7008C90 40.9008 72 66.3008 60.8 66.3008C58 66.3008 52.9 64.3008 52.9 60.9008C52.9 57.5008 64.3 51.6008 64.3 41.2008ZM12.6 41.2008C12.6 35.1008 5.36442e-06 34.2008 5.36442e-06 19.2008C5.36442e-06 8.20079 7.90001 0.000789779 18.9 0.000789779C30.7 0.000789779 38.4 10.5008 38.4 21.6008C38.4 40.8008 20.4 66.2008 9.2 66.2008C6.4 66.2008 1.30001 64.2008 1.30001 60.8008C1.30001 57.4008 12.6 51.6008 12.6 41.2008Z" fill="#C7D2FE"/>
</svg>
